<svg xmlns="http://www.w3.org/2000/svg" width="839" height="727" viewBox="0 0 839 727">
<g>
<path d="M 453.56,294.10 L 453.66,294.24 L 453.64,294.37 L 453.57,294.67 L 453.46,294.91 L 453.19,295.45 L 452.98,295.83 L 452.48,296.66 L 452.14,297.21 L 451.40,298.40 L 450.92,299.16 L 449.89,300.78 L 449.26,301.77 L 446.03,307.33 L 444.17,311.03 L 443.40,312.88 L 441.95,316.56 L 441.38,318.40 L 440.34,322.06 L 439.97,323.88 L 439.34,327.52 L 439.18,329.32 L 438.96,332.93 L 439.00,334.72 L 439.19,338.29 L 439.44,340.06 L 440.04,343.59 L 440.50,345.33 L 441.29,347.90 L 442.01,349.89 L 442.47,351.03 L 443.46,353.40 L 444.06,354.74 L 445.32,357.52 L 446.06,359.06 L 447.61,362.26 L 448.49,364.02 L 450.33,367.65 L 451.36,369.63 L 453.49,373.71 L 454.68,375.92 L 457.12,380.46 L 458.45,382.91 L 460.99,387.62 L 462.48,390.43 L 463.08,391.58 L 463.64,392.68 L 463.88,393.14 L 464.32,394.02 L 464.48,394.36 L 464.78,394.98 L 464.87,395.18 L 465.00,395.51 L 465.00,395.56 L 465.11,396.05 L 465.29,396.59 L 465.43,396.94 L 466.05,398.48 L 466.45,399.35 L 467.67,402.33 L 468.42,404.52 L 468.76,405.71 L 470.05,410.68 L 470.55,413.41 L 471.43,418.97 L 471.70,421.84 L 472.11,427.61 L 472.12,430.43 L 471.98,436.27 L 471.74,439.97 L 471.53,441.75 L 471.07,445.29 L 470.74,447.03 L 470.01,450.51 L 469.55,452.26 L 468.54,455.79 L 467.92,457.60 L 466.60,461.27 L 465.82,463.20 L 464.17,467.12 L 463.21,469.21 L 461.19,473.48 L 460.04,475.78 L 457.88,480.46 L 456.73,483.40 L 456.29,484.80 L 455.50,487.56 L 455.25,488.89 L 454.84,491.50 L 454.77,492.77 L 454.72,495.28 L 454.84,496.52 L 455.16,498.98 L 455.45,500.20 L 456.13,502.65 L 456.61,503.88 L 457.65,506.36 L 458.31,507.63 L 459.57,510.32 L 460.50,512.51 L 460.99,513.78 L 462.00,516.43 L 462.52,517.89 L 463.57,520.90 L 464.10,522.50 L 465.35,527.10 L 466.08,530.60 L 466.38,532.52 L 466.94,536.45 L 467.16,538.52 L 467.55,542.72 L 467.68,544.87 L 468.03,553.53 L 467.91,557.66 L 467.74,561.72 L 467.58,563.63 L 467.21,567.33 L 466.94,569.00 L 466.29,572.23 L 465.68,574.83 L 465.31,576.23 L 464.53,579.09 L 464.11,580.49 L 463.27,583.26 L 462.85,584.50 L 461.14,589.25 L 460.22,591.46 L 459.29,593.62 L 458.83,594.62 L 457.92,596.56 L 457.49,597.41 L 456.63,599.04 L 456.24,599.71 L 455.48,600.95 L 455.16,601.39 L 454.54,602.15 L 454.30,602.33 L 453.87,602.53 L 453.73,602.40 L 453.71,601.71 L 453.91,600.86 L 454.11,600.29 L 454.56,599.07 L 454.86,598.37 L 455.52,596.90 L 455.91,596.13 L 460.30,585.83 L 462.60,578.70 L 463.45,575.01 L 464.92,567.55 L 465.35,563.71 L 465.98,555.97 L 465.98,552.00 L 465.93,546.57 L 465.81,543.34 L 465.68,541.83 L 465.38,538.83 L 465.15,537.33 L 464.60,534.28 L 464.22,532.63 L 463.36,529.22 L 462.79,527.29 L 461.55,523.23 L 460.76,520.86 L 459.95,518.43 L 459.49,517.11 L 458.55,514.39 L 458.03,512.92 L 456.96,509.88 L 456.37,508.23 L 455.15,504.84 L 454.49,503.00 L 453.68,500.70 L 453.24,499.37 L 453.06,498.79 L 452.50,496.67 L 452.38,495.75 L 452.25,493.94 L 452.32,492.95 L 452.56,490.86 L 452.78,489.50 L 453.61,486.14 L 454.52,483.34 L 455.13,481.74 L 456.44,478.40 L 457.21,476.59 L 458.84,472.90 L 459.76,471.00 L 462.69,464.73 L 464.32,461.09 L 464.98,459.46 L 466.21,456.32 L 466.69,454.86 L 467.58,451.99 L 467.92,450.58 L 468.52,447.75 L 468.73,446.28 L 469.09,443.29 L 469.20,441.65 L 469.38,438.26 L 469.42,436.33 L 469.48,432.32 L 469.47,430.00 L 469.45,425.03 L 469.42,422.27 L 469.39,421.10 L 469.31,418.91 L 469.24,417.96 L 469.10,416.16 L 468.99,415.35 L 468.47,412.29 L 468.01,410.69 L 467.53,409.06 L 467.22,408.14 L 466.58,406.21 L 466.18,405.08 L 465.32,402.80 L 464.56,400.96 L 464.10,399.92 L 463.13,397.74 L 462.58,396.55 L 461.45,394.11 L 460.83,392.82 L 458.23,387.49 L 456.82,384.73 L 453.95,379.20 L 452.52,376.58 L 450.10,372.12 L 448.62,369.38 L 447.95,368.11 L 446.65,365.64 L 446.06,364.50 L 444.92,362.29 L 444.41,361.26 L 442.52,357.35 L 441.77,355.65 L 440.41,352.38 L 439.90,350.90 L 438.99,348.02 L 438.67,346.64 L 438.12,343.90 L 437.95,342.49 L 437.68,339.63 L 437.61,338.07 L 437.52,334.84 L 437.52,333.00 L 437.53,329.47 L 437.56,327.47 L 437.59,326.61 L 437.67,324.96 L 437.73,324.24 L 437.87,322.85 L 437.97,322.22 L 438.44,319.82 L 438.83,318.60 L 439.73,316.08 L 440.38,314.50 L 443.62,307.58 L 446.10,302.96 L 447.31,300.95 L 448.52,299.01 L 449.08,298.17 L 450.17,296.59 L 450.65,295.97 L 451.56,294.87 L 451.93,294.53 L 452.59,294.01 L 452.81,294.01 M 460.52,273.06 L 464.04,273.17 L 465.45,273.24 L 466.78,273.32 L 467.34,273.36 L 468.38,273.45 L 468.78,273.50 L 469.48,273.60 L 469.68,273.65 L 470.00,273.76 L 470.00,273.81 L 469.72,274.26 L 469.28,274.66 L 468.96,274.89 L 467.44,275.85 L 466.47,276.31 L 465.15,276.84 L 464.31,277.05 L 462.53,277.43 L 461.51,277.56 L 457.15,277.96 L 454.81,277.94 L 450.11,277.77 L 448.01,277.47 L 445.97,277.14 L 445.09,276.92 L 443.41,276.44 L 442.76,276.15 L 440.11,274.77 L 439.49,274.35 L 439.30,274.17 L 439.01,273.85 L 439.01,273.75 L 439.32,273.60 L 439.83,273.50 L 440.23,273.46 L 441.10,273.37 L 441.66,273.33 L 442.85,273.25 L 443.55,273.22 L 446.63,273.10 L 448.48,273.06 L 452.37,273.00 L 454.50,273.00 Z" fill="rgb(91,90,95)"/>
<path d="M 450.52,285.07 L 451.37,285.20 L 451.79,285.44 L 452.62,286.05 L 453.02,286.53 L 453.75,287.29 L 454.16,287.54 L 454.38,287.53 L 454.82,287.42 L 455.10,287.24 L 455.70,286.77 L 456.11,286.40 L 457.74,285.46 L 458.85,285.27 L 459.33,285.37 L 460.23,285.72 L 460.53,286.08 L 461.00,286.92 L 461.00,287.50 L 460.82,288.21 L 460.50,288.56 L 460.24,288.68 L 459.64,288.89 L 459.23,288.94 L 458.33,289.01 L 457.75,289.00 L 455.69,289.04 L 454.53,289.15 L 452.23,289.40 L 451.37,289.57 L 449.09,289.70 L 447.98,289.42 L 447.67,289.13 L 447.21,288.45 L 447.26,288.00 L 447.57,287.02 L 448.04,286.46 L 449.25,285.41 L 450.09,285.06 M 456.94,18.38 L 458.64,18.46 L 461.99,18.66 L 463.58,18.82 L 470.63,19.62 L 474.81,20.17 L 476.68,20.46 L 480.26,21.06 L 481.88,21.39 L 485.00,22.08 L 486.42,22.47 L 489.19,23.27 L 490.49,23.73 L 493.03,24.68 L 494.26,25.23 L 499.08,27.61 L 501.62,29.15 L 504.19,30.64 L 505.81,31.52 L 506.51,31.87 L 507.83,32.50 L 508.32,32.70 L 509.17,33.00 L 509.36,33.00 L 510.73,33.46 L 511.70,34.14 L 512.06,34.57 L 512.88,35.35 L 513.68,35.96 L 514.16,36.29 L 516.28,37.63 L 517.39,38.20 L 518.65,38.97 L 519.65,39.69 L 520.21,40.14 L 522.63,42.16 L 524.02,43.43 L 526.88,46.13 L 528.38,47.63 L 531.41,50.70 L 532.89,52.28 L 535.81,55.44 L 537.12,56.95 L 539.65,59.89 L 540.67,61.18 L 541.64,62.43 L 542.05,62.99 L 542.81,64.07 L 543.10,64.53 L 543.61,65.40 L 543.77,65.74 L 544.00,66.36 L 544.00,66.56 L 544.20,67.05 L 544.51,67.57 L 544.73,67.89 L 545.81,69.37 L 546.50,70.18 L 548.27,72.65 L 548.68,73.39 L 548.80,73.69 L 549.00,74.25 L 549.00,74.42 L 549.59,75.85 L 550.45,77.00 L 551.00,77.50 L 552.41,79.39 L 553.00,80.83 L 553.01,81.40 L 553.17,82.46 L 553.41,83.30 L 553.59,83.77 L 554.45,85.67 L 555.00,86.50 L 556.41,89.28 L 556.73,90.22 L 556.83,90.64 L 556.99,91.44 L 556.99,91.75 L 557.51,93.85 L 558.27,95.27 L 558.75,95.75 L 559.89,97.66 L 560.26,99.16 L 560.18,99.79 L 560.13,101.12 L 560.20,102.26 L 560.27,102.91 L 560.66,105.70 L 560.96,107.13 L 561.59,109.92 L 561.92,110.98 L 562.25,111.95 L 562.41,112.29 L 562.72,112.87 L 562.86,112.96 L 563.10,113.95 L 563.17,115.32 L 563.17,116.30 L 563.15,118.46 L 563.10,119.76 L 562.99,122.52 L 562.90,124.07 L 562.71,127.26 L 562.58,128.95 L 562.32,132.40 L 562.17,134.16 L 561.49,141.25 L 561.08,144.50 L 560.66,147.82 L 560.42,149.68 L 560.30,150.48 L 559.84,153.39 L 559.55,154.69 L 558.93,157.28 L 558.47,158.84 L 557.98,160.48 L 557.69,161.43 L 557.06,163.45 L 556.68,164.66 L 554.62,171.53 L 554.01,173.71 L 553.76,174.65 L 553.30,176.41 L 553.16,177.03 L 552.34,179.72 L 551.47,182.05 L 550.93,183.39 L 548.49,189.16 L 547.13,192.06 L 545.78,194.93 L 545.14,196.22 L 543.88,198.71 L 543.33,199.71 L 542.30,201.54 L 541.91,202.11 L 541.55,202.62 L 541.41,202.77 L 541.15,203.00 L 541.07,203.00 L 540.66,203.26 L 540.37,203.66 L 540.23,203.95 L 539.66,205.36 L 539.47,206.25 L 538.48,209.25 L 537.46,211.52 L 536.88,212.59 L 535.70,214.66 L 535.16,215.41 L 534.62,216.11 L 534.39,216.36 L 533.94,216.77 L 533.76,216.84 L 533.26,217.34 L 532.77,218.00 L 532.49,218.45 L 531.22,220.56 L 530.57,221.84 L 529.37,223.96 L 528.33,225.60 L 527.72,226.50 L 525.07,230.30 L 523.59,232.24 L 520.59,236.07 L 519.20,237.68 L 517.85,239.24 L 517.24,239.88 L 516.08,241.08 L 515.60,241.50 L 513.73,243.39 L 512.67,244.67 L 512.42,245.12 L 511.20,246.60 L 509.84,247.96 L 508.95,248.77 L 507.07,250.46 L 506.01,251.37 L 503.84,253.20 L 502.73,254.10 L 500.49,255.89 L 499.42,256.71 L 497.35,258.27 L 496.45,258.91 L 494.76,260.07 L 494.14,260.43 L 493.56,260.76 L 493.34,260.85 L 492.94,261.00 L 492.83,261.00 L 491.29,261.55 L 490.35,262.35 L 490.07,262.86 L 488.98,263.87 L 487.66,264.66 L 486.73,265.10 L 484.70,266.02 L 483.46,266.51 L 480.81,267.50 L 479.29,268.01 L 476.06,269.09 L 474.22,269.67 L 473.40,269.89 L 470.30,270.65 L 468.65,270.85 L 466.95,271.02 L 465.97,271.06 L 463.92,271.14 L 462.69,271.15 L 460.10,271.16 L 458.53,271.15 L 455.20,271.11 L 453.19,271.08 L 448.71,271.04 L 446.70,271.06 L 442.84,271.13 L 441.27,271.19 L 439.76,271.26 L 439.11,271.31 L 437.90,271.39 L 437.42,271.45 L 436.55,271.55 L 436.26,271.61 L 435.77,271.73 L 435.69,271.80 L 435.01,272.07 L 434.49,272.05 L 434.18,271.93 L 433.55,271.62 L 433.19,271.36 L 432.44,270.77 L 432.02,270.37 L 429.68,268.69 L 428.87,268.30 L 428.50,268.18 L 427.80,267.99 L 427.52,267.99 L 426.16,267.60 L 424.79,266.97 L 423.94,266.52 L 422.16,265.53 L 421.18,264.93 L 419.18,263.68 L 418.17,262.99 L 415.28,261.05 L 413.55,259.92 L 412.84,259.47 L 411.53,258.65 L 411.09,258.39 L 410.38,258.00 L 410.30,258.00 L 409.90,257.79 L 409.44,257.46 L 409.13,257.21 L 408.44,256.66 L 408.03,256.31 L 407.17,255.57 L 406.68,255.13 L 404.59,253.26 L 403.41,252.18 L 400.99,249.93 L 399.75,248.75 L 397.29,246.40 L 396.14,245.29 L 393.93,243.11 L 393.02,242.18 L 392.15,241.29 L 391.78,240.90 L 391.09,240.17 L 390.83,239.87 L 390.36,239.32 L 390.22,239.13 L 390.00,238.81 L 390.00,238.75 L 389.68,237.99 L 389.19,237.18 L 388.83,236.67 L 388.03,235.59 L 387.56,234.98 L 386.56,233.75 L 386.01,233.11 L 382.45,229.00 L 381.30,227.67 L 380.79,227.09 L 379.85,226.00 L 379.51,225.60 L 377.74,223.13 L 377.33,222.36 L 377.20,222.04 L 377.00,221.45 L 377.00,221.25 L 376.80,220.45 L 376.49,219.75 L 376.27,219.34 L 375.19,217.63 L 374.50,216.82 L 372.73,214.16 L 372.32,213.30 L 372.20,212.93 L 372.00,212.22 L 372.00,211.96 L 371.41,210.31 L 370.55,209.29 L 370.00,209.00 L 368.59,207.58 L 368.00,206.28 L 368.00,205.66 L 367.80,204.51 L 367.49,203.57 L 367.27,203.06 L 366.19,200.93 L 365.50,200.00 L 363.73,197.11 L 363.32,196.22 L 363.20,195.85 L 363.00,195.16 L 363.00,194.93 L 362.56,193.37 L 361.91,192.34 L 361.50,192.00 L 360.44,190.56 L 360.00,189.36 L 360.00,188.84 L 359.84,187.78 L 359.59,186.85 L 359.41,186.32 L 358.54,184.05 L 357.98,182.96 L 356.44,179.01 L 356.04,177.58 L 355.89,176.91 L 355.63,175.61 L 355.58,175.07 L 355.23,173.17 L 354.83,171.68 L 354.57,170.88 L 353.36,167.65 L 352.66,166.32 L 351.64,164.10 L 351.00,162.44 L 350.73,161.59 L 350.23,159.91 L 350.05,159.13 L 349.74,157.62 L 349.68,157.00 L 349.41,154.71 L 349.16,152.83 L 349.01,151.80 L 348.36,147.51 L 348.02,145.62 L 347.77,143.81 L 347.62,142.37 L 347.56,141.54 L 347.34,138.00 L 347.27,135.95 L 347.16,131.68 L 347.14,129.42 L 347.14,124.83 L 347.17,122.55 L 347.26,118.03 L 347.34,115.93 L 347.53,111.88 L 347.66,110.16 L 347.79,108.50 L 347.86,107.77 L 348.01,106.39 L 348.10,105.82 L 348.27,104.76 L 348.36,104.37 L 348.55,103.69 L 348.65,103.50 L 349.17,102.38 L 349.53,101.40 L 349.72,100.82 L 350.47,98.33 L 350.81,96.97 L 351.44,94.23 L 351.66,93.02 L 351.85,91.84 L 351.91,91.34 L 352.00,90.40 L 352.00,90.04 L 352.57,88.28 L 353.40,87.13 L 353.93,86.76 L 355.08,85.54 L 355.82,84.37 L 356.14,83.67 L 356.75,82.20 L 356.98,81.41 L 357.38,79.80 L 357.49,79.00 L 357.76,78.33 L 358.22,77.51 L 358.62,76.84 L 359.54,75.33 L 360.22,74.25 L 360.94,73.11 L 361.36,72.44 L 362.24,71.05 L 362.75,70.25 L 364.28,67.67 L 365.22,65.93 L 365.50,65.33 L 366.04,64.37 L 366.55,63.57 L 366.88,63.11 L 368.38,61.09 L 369.33,59.90 L 371.36,57.41 L 372.49,56.09 L 374.81,53.40 L 376.00,52.08 L 378.38,49.46 L 379.51,48.27 L 381.71,45.98 L 382.66,45.05 L 384.44,43.36 L 385.08,42.83 L 385.69,42.36 L 385.92,42.22 L 386.32,42.00 L 386.43,42.00 L 387.12,41.76 L 387.75,41.39 L 388.12,41.12 L 389.71,39.82 L 390.50,39.00 L 392.87,36.88 L 393.58,36.39 L 393.86,36.24 L 394.38,36.00 L 394.54,36.00 L 395.21,35.80 L 395.81,35.49 L 396.16,35.27 L 397.66,34.19 L 398.41,33.50 L 400.85,31.73 L 401.65,31.32 L 402.01,31.20 L 402.68,31.00 L 402.93,31.00 L 404.58,30.56 L 405.66,29.91 L 406.00,29.50 L 407.54,28.44 L 408.87,28.00 L 409.49,28.00 L 411.82,27.41 L 413.57,26.55 L 414.27,26.00 L 416.67,24.59 L 418.31,24.00 L 418.87,24.00 L 420.05,23.85 L 421.11,23.62 L 421.73,23.45 L 424.40,22.65 L 425.71,22.14 L 429.13,21.04 L 431.78,20.39 L 433.25,20.11 L 436.27,19.58 L 437.89,19.37 L 441.19,18.96 L 442.91,18.81 L 449.93,18.35 L 453.44,18.34 Z" fill="rgb(108,99,253)"/>
<path d="M 457.43,381.05 L 457.12,380.46 L 456.74,379.77 M 439.01,333.04 L 439.17,337.37 L 439.47,340.19 L 439.75,341.64 L 440.39,344.58 L 440.86,346.16 L 441.91,349.42 L 442.61,351.23 L 443.95,354.50 L 443.46,353.40 L 442.47,351.03 L 442.01,349.89 L 441.29,347.90 L 440.50,345.33 L 440.04,343.59 L 439.44,340.06 L 439.19,338.29 L 439.00,334.72 L 438.96,332.93 L 439.01,332.07 M 437.97,322.22 L 437.87,322.85 L 437.73,324.24 L 437.67,324.96 L 437.59,326.61 L 437.56,327.47 L 437.53,329.47 L 437.52,333.00 L 437.52,334.84 L 437.61,338.07 L 437.68,339.63 L 437.95,342.49 L 438.12,343.90 L 438.67,346.64 L 438.77,347.06 L 438.67,346.64 L 438.12,343.90 L 437.95,342.49 L 437.68,339.63 L 437.61,338.07 L 437.52,334.84 L 437.52,333.00 L 437.53,329.41 L 437.56,327.38 L 437.59,326.51 L 437.67,324.86 L 437.73,324.13 L 437.88,322.74 L 437.98,322.10 L 438.09,321.59 M 439.26,328.43 L 439.34,327.52 L 439.46,326.87 M 464.85,277.08 L 464.41,277.33 L 463.62,277.80 L 463.38,277.98 L 463.00,278.31 L 463.00,278.40 L 463.20,279.07 L 463.51,279.98 L 463.74,280.62 L 464.24,282.01 L 464.54,282.82 L 465.17,284.53 L 465.52,285.45 L 466.45,288.12 L 466.95,289.75 L 467.13,290.45 L 467.42,291.73 L 467.48,292.18 L 467.54,292.94 L 467.46,293.07 L 466.73,293.43 L 465.81,293.64 L 465.19,293.73 L 463.83,293.88 L 463.04,293.93 L 461.40,294.00 L 460.53,294.00 L 454.18,294.00 L 451.55,298.16 L 452.14,297.21 L 452.48,296.66 L 452.98,295.83 L 453.19,295.45 L 453.46,294.91 L 453.57,294.67 L 453.64,294.37 L 453.66,294.24 L 453.56,294.10 L 452.81,294.01 L 452.59,294.01 L 451.93,294.53 L 451.56,294.87 L 450.65,295.97 L 450.17,296.59 L 449.08,298.17 L 448.52,299.01 L 447.31,300.95 L 446.10,302.96 L 443.62,307.58 L 440.63,313.97 L 440.65,313.93 L 442.15,310.54 L 443.32,308.12 L 443.93,306.93 L 445.16,304.57 L 445.75,303.51 L 446.90,301.50 L 447.40,300.73 L 448.80,298.50 L 449.62,297.15 L 449.94,296.59 L 450.53,295.56 L 450.72,295.21 L 451.00,294.62 L 451.00,294.55 L 450.68,294.34 L 450.19,294.21 L 449.82,294.16 L 448.10,294.00 L 447.00,294.00 L 444.88,293.92 L 443.95,293.77 L 443.67,293.60 L 443.22,293.21 L 443.13,292.88 L 443.00,292.15 L 443.00,291.63 L 443.12,290.37 L 443.30,289.30 L 443.44,288.70 L 444.09,286.17 L 444.50,285.00 L 445.36,282.43 L 445.75,281.02 L 445.83,280.43 L 445.89,279.31 L 445.76,278.84 L 445.41,277.94 L 445.05,277.54 L 444.20,276.76 L 443.91,276.58 L 445.09,276.92 L 445.97,277.14 L 448.01,277.47 L 450.11,277.77 L 454.81,277.94 L 457.15,277.96 L 461.51,277.56 L 462.53,277.43 L 464.31,277.05 L 465.15,276.84 L 465.91,276.54 M 445.75,307.92 L 445.06,309.31 L 443.30,313.13 L 443.40,312.88 L 444.17,311.03 L 446.03,307.33 L 446.99,305.67 M 450.01,300.60 L 447.92,304.08 L 449.26,301.77 L 449.89,300.78 L 450.79,299.37 M 449.25,285.41 L 448.04,286.46 L 447.57,287.02 L 447.26,288.00 L 447.21,288.45 L 447.67,289.13 L 447.98,289.42 L 449.09,289.70 L 451.37,289.57 L 452.23,289.40 L 454.53,289.15 L 455.69,289.04 L 457.75,289.00 L 458.33,289.01 L 459.23,288.94 L 459.64,288.89 L 460.24,288.68 L 460.50,288.56 L 460.82,288.21 L 461.00,287.50 L 461.00,286.92 L 460.53,286.08 L 460.23,285.72 L 459.33,285.37 L 458.85,285.27 L 457.74,285.46 L 456.11,286.40 L 455.70,286.77 L 455.10,287.24 L 454.82,287.42 L 454.38,287.53 L 454.16,287.54 L 453.75,287.29 L 453.02,286.53 L 452.62,286.05 L 451.79,285.44 L 451.37,285.20 L 450.52,285.07 L 450.09,285.06 M 460.73,16.69 L 464.97,17.09 L 469.26,17.53 L 471.81,17.82 L 472.97,17.98 L 477.34,18.65 L 479.34,19.08 L 483.30,20.04 L 485.44,20.70 L 487.62,21.39 L 488.80,21.79 L 491.25,22.63 L 492.61,23.12 L 500.88,26.48 L 506.24,29.05 L 508.82,30.50 L 513.93,33.49 L 516.38,35.15 L 521.23,38.55 L 523.55,40.41 L 528.11,44.21 L 530.28,46.25 L 534.54,50.43 L 536.55,52.66 L 540.49,57.20 L 542.34,59.61 L 545.94,64.50 L 547.61,67.07 L 551.83,74.33 L 554.38,79.47 L 555.52,82.17 L 557.70,87.65 L 558.64,90.48 L 560.42,96.19 L 561.16,99.11 L 562.52,104.96 L 563.04,107.91 L 563.96,113.81 L 564.25,116.75 L 564.70,122.61 L 564.74,125.50 L 564.71,131.22 L 564.50,134.00 L 564.19,137.25 L 563.89,139.68 L 563.71,141.01 L 562.89,146.57 L 562.36,149.57 L 561.24,155.69 L 560.61,158.73 L 559.31,164.75 L 558.64,167.50 L 558.38,168.43 L 558.14,169.25 L 558.00,169.73 L 557.35,171.82 L 556.98,172.95 L 556.23,175.22 L 555.89,176.20 L 555.57,177.14 L 555.43,177.53 L 555.16,178.25 L 555.06,178.50 L 551.02,188.40 L 548.45,194.39 L 547.21,197.13 L 544.75,202.46 L 543.53,204.91 L 541.10,209.69 L 539.88,211.92 L 537.40,216.29 L 536.13,218.36 L 533.55,222.45 L 532.19,224.43 L 529.43,228.36 L 527.95,230.31 L 524.93,234.22 L 523.30,236.21 L 517.58,242.82 L 513.67,246.99 L 511.68,248.95 L 507.68,252.76 L 505.66,254.52 L 501.61,257.95 L 499.59,259.50 L 495.55,262.50 L 493.55,263.82 L 489.57,266.36 L 487.62,267.44 L 483.74,269.47 L 481.85,270.28 L 478.13,271.78 L 476.33,272.31 L 472.23,273.75 L 469.24,274.98 L 467.87,275.60 L 467.72,275.67 L 468.96,274.89 L 469.28,274.66 L 469.72,274.26 L 470.00,273.81 L 470.00,273.76 L 469.68,273.65 L 469.48,273.60 L 468.78,273.50 L 468.38,273.45 L 467.34,273.36 L 466.78,273.32 L 465.45,273.24 L 464.04,273.17 L 460.52,273.06 L 454.50,273.00 L 452.37,273.00 L 448.48,273.06 L 446.63,273.10 L 443.55,273.22 L 442.85,273.25 L 441.66,273.33 L 441.10,273.37 L 440.23,273.46 L 439.83,273.50 L 439.32,273.60 L 439.01,273.75 L 439.01,273.85 L 439.30,274.17 L 439.49,274.35 L 440.11,274.77 L 440.38,274.91 L 439.06,274.39 L 437.73,273.91 L 434.89,272.92 L 433.15,272.33 L 430.99,271.50 L 429.33,270.79 L 428.42,270.37 L 424.58,268.51 L 422.53,267.42 L 418.39,265.16 L 416.42,263.99 L 412.61,261.65 L 411.03,260.57 L 408.24,258.45 L 406.09,256.64 L 404.91,255.58 L 402.48,253.36 L 401.21,252.14 L 398.63,249.64 L 397.33,248.33 L 392.12,242.95 L 389.76,240.31 L 387.47,237.70 L 386.45,236.47 L 384.49,234.08 L 383.68,233.00 L 381.42,229.99 L 380.01,228.14 L 379.40,227.35 L 378.28,225.88 L 377.87,225.35 L 377.17,224.46 L 377.03,224.29 L 376.30,223.29 L 376.00,222.71 L 376.00,222.56 L 375.71,221.90 L 375.25,221.07 L 374.91,220.50 L 374.18,219.27 L 373.74,218.55 L 372.81,217.06 L 372.31,216.27 L 367.04,207.22 L 363.67,200.64 L 362.08,197.15 L 358.98,190.04 L 357.56,186.37 L 354.79,178.96 L 353.56,175.22 L 351.21,167.73 L 350.21,164.02 L 348.34,156.67 L 347.61,153.12 L 346.29,146.12 L 345.86,142.84 L 345.17,136.42 L 345.09,133.50 L 344.96,130.36 L 344.85,128.46 L 344.78,127.67 L 344.65,126.22 L 344.58,125.72 L 344.44,124.90 L 344.37,124.79 L 344.23,124.15 L 344.20,123.44 L 344.22,122.96 L 344.28,121.92 L 344.34,121.29 L 344.47,119.98 L 344.57,119.24 L 345.00,116.04 L 345.29,114.22 L 345.92,110.46 L 346.29,108.50 L 347.04,104.57 L 347.45,102.67 L 348.26,98.96 L 348.66,97.31 L 349.45,94.21 L 349.81,93.02 L 350.17,91.90 L 350.33,91.46 L 350.65,90.65 L 350.80,90.38 L 351.53,88.83 L 351.87,87.95 L 351.89,87.75 L 352.05,87.16 L 352.27,86.52 L 352.42,86.11 L 353.14,84.28 L 353.58,83.25 L 354.96,79.96 L 355.39,78.91 L 355.57,78.46 L 355.92,77.62 L 356.04,77.32 L 357.18,74.94 L 358.28,72.99 L 358.96,71.88 L 360.41,69.59 L 361.24,68.36 L 362.95,65.85 L 363.87,64.55 L 367.70,59.33 L 369.65,56.89 L 371.58,54.50 L 372.51,53.42 L 374.33,51.34 L 375.17,50.46 L 384.31,41.87 L 390.80,36.74 L 394.23,34.48 L 401.20,30.16 L 404.84,28.31 L 412.23,24.82 L 416.05,23.40 L 423.79,20.78 L 427.77,19.79 L 435.79,18.05 L 439.89,17.51 L 448.14,16.67 L 452.32,16.60 M 449.93,18.35 L 442.91,18.81 L 441.19,18.96 L 437.89,19.37 L 436.27,19.58 L 433.25,20.11 L 431.78,20.39 L 429.13,21.04 L 425.71,22.14 L 424.40,22.65 L 421.73,23.45 L 421.11,23.62 L 420.05,23.85 L 418.87,24.00 L 418.31,24.00 L 416.67,24.59 L 414.27,26.00 L 413.57,26.55 L 411.82,27.41 L 409.49,28.00 L 408.87,28.00 L 407.54,28.44 L 406.00,29.50 L 405.66,29.91 L 404.58,30.56 L 402.93,31.00 L 402.68,31.00 L 402.01,31.20 L 401.65,31.32 L 400.85,31.73 L 398.41,33.50 L 397.66,34.19 L 396.16,35.27 L 395.81,35.49 L 395.21,35.80 L 394.54,36.00 L 394.38,36.00 L 393.86,36.24 L 393.58,36.39 L 392.87,36.88 L 390.50,39.00 L 389.71,39.82 L 388.12,41.12 L 387.75,41.39 L 387.12,41.76 L 386.43,42.00 L 386.32,42.00 L 385.92,42.22 L 385.69,42.36 L 385.08,42.83 L 384.44,43.36 L 382.66,45.05 L 381.71,45.98 L 379.51,48.27 L 378.38,49.46 L 376.00,52.08 L 374.81,53.40 L 372.49,56.09 L 371.36,57.41 L 369.33,59.90 L 368.38,61.09 L 366.88,63.11 L 366.55,63.57 L 366.04,64.37 L 365.50,65.33 L 365.22,65.93 L 364.28,67.67 L 362.75,70.25 L 362.24,71.05 L 361.36,72.44 L 360.94,73.11 L 360.22,74.25 L 359.54,75.33 L 358.62,76.84 L 358.22,77.51 L 357.76,78.33 L 357.49,79.00 L 357.38,79.80 L 356.98,81.41 L 356.75,82.20 L 356.14,83.67 L 355.82,84.37 L 355.08,85.54 L 353.93,86.76 L 353.40,87.13 L 352.57,88.28 L 352.00,90.04 L 352.00,90.40 L 351.91,91.34 L 351.85,91.84 L 351.66,93.02 L 351.44,94.23 L 350.81,96.97 L 350.47,98.33 L 349.72,100.82 L 349.53,101.40 L 349.17,102.38 L 348.65,103.50 L 348.55,103.69 L 348.36,104.37 L 348.27,104.76 L 348.10,105.82 L 348.01,106.39 L 347.86,107.77 L 347.79,108.50 L 347.66,110.16 L 347.53,111.88 L 347.34,115.93 L 347.26,118.03 L 347.17,122.55 L 347.14,124.83 L 347.14,129.42 L 347.16,131.68 L 347.27,135.95 L 347.34,138.00 L 347.56,141.54 L 347.62,142.37 L 347.77,143.81 L 348.02,145.62 L 348.36,147.51 L 349.01,151.80 L 349.16,152.83 L 349.41,154.71 L 349.68,157.00 L 349.74,157.62 L 350.05,159.13 L 350.23,159.91 L 350.73,161.59 L 351.00,162.44 L 351.64,164.10 L 352.66,166.32 L 353.36,167.65 L 354.57,170.88 L 354.83,171.68 L 355.23,173.17 L 355.58,175.07 L 355.63,175.61 L 355.89,176.91 L 356.04,177.58 L 356.44,179.01 L 357.98,182.96 L 358.54,184.05 L 359.41,186.32 L 359.59,186.85 L 359.84,187.78 L 360.00,188.84 L 360.00,189.36 L 360.44,190.56 L 361.50,192.00 L 361.91,192.34 L 362.56,193.37 L 363.00,194.93 L 363.00,195.16 L 363.20,195.85 L 363.32,196.22 L 363.73,197.11 L 365.50,200.00 L 366.19,200.93 L 367.27,203.06 L 367.49,203.57 L 367.80,204.51 L 368.00,205.66 L 368.00,206.28 L 368.59,207.58 L 370.00,209.00 L 370.55,209.29 L 371.41,210.31 L 372.00,211.96 L 372.00,212.22 L 372.20,212.93 L 372.32,213.30 L 372.73,214.16 L 374.50,216.82 L 375.19,217.63 L 376.27,219.34 L 376.49,219.75 L 376.80,220.45 L 377.00,221.25 L 377.00,221.45 L 377.20,222.04 L 377.33,222.36 L 377.74,223.13 L 379.51,225.60 L 379.85,226.00 L 380.79,227.09 L 381.30,227.67 L 382.45,229.00 L 386.01,233.11 L 386.56,233.75 L 387.56,234.98 L 388.03,235.59 L 388.83,236.67 L 389.19,237.18 L 389.68,237.99 L 390.00,238.75 L 390.00,238.81 L 390.22,239.13 L 390.36,239.32 L 390.83,239.87 L 391.09,240.17 L 391.78,240.90 L 392.15,241.29 L 393.02,242.18 L 393.93,243.11 L 396.14,245.29 L 397.29,246.40 L 399.75,248.75 L 400.99,249.93 L 403.41,252.18 L 404.59,253.26 L 406.68,255.13 L 407.17,255.57 L 408.03,256.31 L 408.44,256.66 L 409.13,257.21 L 409.44,257.46 L 409.90,257.79 L 410.30,258.00 L 410.38,258.00 L 411.09,258.39 L 411.53,258.65 L 412.84,259.47 L 413.55,259.92 L 415.28,261.05 L 418.17,262.99 L 419.18,263.68 L 421.18,264.93 L 422.16,265.53 L 423.94,266.52 L 424.79,266.97 L 426.16,267.60 L 427.52,267.99 L 427.80,267.99 L 428.50,268.18 L 428.87,268.30 L 429.68,268.69 L 432.02,270.37 L 432.44,270.77 L 433.19,271.36 L 433.55,271.62 L 434.18,271.93 L 434.49,272.05 L 435.01,272.07 L 435.69,271.80 L 435.77,271.73 L 436.26,271.61 L 436.55,271.55 L 437.42,271.45 L 437.90,271.39 L 439.11,271.31 L 439.76,271.26 L 441.27,271.19 L 442.84,271.13 L 446.70,271.06 L 448.71,271.04 L 453.19,271.08 L 455.20,271.11 L 458.53,271.15 L 460.10,271.16 L 462.69,271.15 L 463.92,271.14 L 465.97,271.06 L 466.95,271.02 L 468.65,270.85 L 470.30,270.65 L 473.40,269.89 L 474.22,269.67 L 476.06,269.09 L 479.29,268.01 L 480.81,267.50 L 483.46,266.51 L 484.70,266.02 L 486.73,265.10 L 487.66,264.66 L 488.98,263.87 L 490.07,262.86 L 490.35,262.35 L 491.29,261.55 L 492.83,261.00 L 492.94,261.00 L 493.34,260.85 L 493.56,260.76 L 494.14,260.43 L 494.76,260.07 L 496.45,258.91 L 497.35,258.27 L 499.42,256.71 L 500.49,255.89 L 502.73,254.10 L 503.84,253.20 L 506.01,251.37 L 507.07,250.46 L 508.95,248.77 L 509.84,247.96 L 511.20,246.60 L 512.42,245.12 L 512.67,244.67 L 513.73,243.39 L 515.60,241.50 L 516.08,241.08 L 517.24,239.88 L 517.85,239.24 L 519.20,237.68 L 520.59,236.07 L 523.59,232.24 L 525.07,230.30 L 527.72,226.50 L 528.33,225.60 L 529.37,223.96 L 530.57,221.84 L 531.22,220.56 L 532.49,218.45 L 532.77,218.00 L 533.26,217.34 L 533.76,216.84 L 533.94,216.77 L 534.39,216.36 L 534.62,216.11 L 535.16,215.41 L 535.70,214.66 L 536.88,212.59 L 537.46,211.52 L 538.48,209.25 L 539.47,206.25 L 539.66,205.36 L 540.23,203.95 L 540.37,203.66 L 540.66,203.26 L 541.07,203.00 L 541.15,203.00 L 541.41,202.77 L 541.55,202.62 L 541.91,202.11 L 542.30,201.54 L 543.33,199.71 L 543.88,198.71 L 545.14,196.22 L 545.78,194.93 L 547.13,192.06 L 548.49,189.16 L 550.93,183.39 L 551.47,182.05 L 552.34,179.72 L 553.16,177.03 L 553.30,176.41 L 553.76,174.65 L 554.01,173.71 L 554.62,171.53 L 556.68,164.66 L 557.06,163.45 L 557.69,161.43 L 557.98,160.48 L 558.47,158.84 L 558.93,157.28 L 559.55,154.69 L 559.84,153.39 L 560.30,150.48 L 560.42,149.68 L 560.66,147.82 L 561.08,144.50 L 561.49,141.25 L 562.17,134.16 L 562.32,132.40 L 562.58,128.95 L 562.71,127.26 L 562.90,124.07 L 562.99,122.52 L 563.10,119.76 L 563.15,118.46 L 563.17,116.30 L 563.17,115.32 L 563.10,113.95 L 562.86,112.96 L 562.72,112.87 L 562.41,112.29 L 562.25,111.95 L 561.92,110.98 L 561.59,109.92 L 560.96,107.13 L 560.66,105.70 L 560.27,102.91 L 560.20,102.26 L 560.13,101.12 L 560.18,99.79 L 560.26,99.16 L 559.89,97.66 L 558.75,95.75 L 558.27,95.27 L 557.51,93.85 L 556.99,91.75 L 556.99,91.44 L 556.83,90.64 L 556.73,90.22 L 556.41,89.28 L 555.00,86.50 L 554.45,85.67 L 553.59,83.77 L 553.41,83.30 L 553.17,82.46 L 553.01,81.40 L 553.00,80.83 L 552.41,79.39 L 551.00,77.50 L 550.45,77.00 L 549.59,75.85 L 549.00,74.42 L 549.00,74.25 L 548.80,73.69 L 548.68,73.39 L 548.27,72.65 L 546.50,70.18 L 545.81,69.37 L 544.73,67.89 L 544.51,67.57 L 544.20,67.05 L 544.00,66.56 L 544.00,66.36 L 543.77,65.74 L 543.61,65.40 L 543.10,64.53 L 542.81,64.07 L 542.05,62.99 L 541.64,62.43 L 540.67,61.18 L 539.65,59.89 L 537.12,56.95 L 535.81,55.44 L 532.89,52.28 L 531.41,50.70 L 528.38,47.63 L 526.88,46.13 L 524.02,43.43 L 522.63,42.16 L 520.21,40.14 L 519.65,39.69 L 518.65,38.97 L 517.39,38.20 L 516.28,37.63 L 514.16,36.29 L 513.68,35.96 L 512.88,35.35 L 512.06,34.57 L 511.70,34.14 L 510.73,33.46 L 509.36,33.00 L 509.17,33.00 L 508.32,32.70 L 507.83,32.50 L 506.51,31.87 L 505.81,31.52 L 504.19,30.64 L 501.62,29.15 L 499.08,27.61 L 494.26,25.23 L 493.03,24.68 L 490.49,23.73 L 489.19,23.27 L 486.42,22.47 L 485.00,22.08 L 481.88,21.39 L 480.26,21.06 L 476.68,20.46 L 474.81,20.17 L 470.63,19.62 L 463.58,18.82 L 461.99,18.66 L 458.64,18.46 L 456.94,18.38 L 453.44,18.34 M 448.62,369.38 L 447.95,368.11 L 447.27,366.82 L 447.95,368.11 L 448.62,369.38 L 450.10,372.12 L 452.52,376.58 L 450.10,372.12 Z" fill="rgb(111,102,221)"/>
<path d="M 839.00,727.00 L 0.00,727.00 L 0.00,0.00 L 839.00,0.00 M 448.14,16.67 L 439.89,17.51 L 435.79,18.05 L 427.77,19.79 L 423.79,20.78 L 416.05,23.40 L 412.23,24.82 L 404.84,28.31 L 401.20,30.16 L 394.23,34.48 L 390.80,36.74 L 384.31,41.87 L 375.17,50.46 L 374.33,51.34 L 372.51,53.42 L 371.58,54.50 L 369.65,56.89 L 367.70,59.33 L 363.87,64.55 L 362.95,65.85 L 361.24,68.36 L 360.41,69.59 L 358.96,71.88 L 358.28,72.99 L 357.18,74.94 L 356.04,77.32 L 355.92,77.62 L 355.57,78.46 L 355.39,78.91 L 354.96,79.96 L 353.58,83.25 L 353.14,84.28 L 352.42,86.11 L 352.27,86.52 L 352.05,87.16 L 351.89,87.75 L 351.87,87.95 L 351.53,88.83 L 350.80,90.38 L 350.65,90.65 L 350.33,91.46 L 350.17,91.90 L 349.81,93.02 L 349.45,94.21 L 348.66,97.31 L 348.26,98.96 L 347.45,102.67 L 347.04,104.57 L 346.29,108.50 L 345.92,110.46 L 345.29,114.22 L 345.00,116.04 L 344.57,119.24 L 344.47,119.98 L 344.34,121.29 L 344.28,121.92 L 344.22,122.96 L 344.20,123.44 L 344.23,124.15 L 344.37,124.79 L 344.44,124.90 L 344.58,125.72 L 344.65,126.22 L 344.78,127.67 L 344.85,128.46 L 344.96,130.36 L 345.09,133.50 L 345.17,136.42 L 345.86,142.84 L 346.29,146.12 L 347.61,153.12 L 348.34,156.67 L 350.21,164.02 L 351.21,167.73 L 353.56,175.22 L 354.79,178.96 L 357.56,186.37 L 358.98,190.04 L 362.08,197.15 L 363.67,200.64 L 367.04,207.22 L 372.31,216.27 L 372.81,217.06 L 373.74,218.55 L 374.18,219.27 L 374.91,220.50 L 375.25,221.07 L 375.71,221.90 L 376.00,222.56 L 376.00,222.71 L 376.30,223.29 L 377.03,224.29 L 377.17,224.46 L 377.87,225.35 L 378.28,225.88 L 379.40,227.35 L 380.01,228.14 L 381.42,229.99 L 383.68,233.00 L 384.49,234.08 L 386.45,236.47 L 387.47,237.70 L 389.76,240.31 L 392.12,242.95 L 397.33,248.33 L 398.63,249.64 L 401.21,252.14 L 402.48,253.36 L 404.91,255.58 L 406.09,256.64 L 408.24,258.45 L 411.03,260.57 L 412.61,261.65 L 416.42,263.99 L 418.39,265.16 L 422.53,267.42 L 424.58,268.51 L 428.42,270.37 L 429.33,270.79 L 430.99,271.50 L 433.15,272.33 L 434.89,272.92 L 437.73,273.91 L 439.06,274.39 L 441.16,275.22 L 442.12,275.62 L 443.56,276.38 L 444.20,276.76 L 444.75,277.27 L 444.54,277.41 L 444.45,278.01 L 444.60,278.40 L 444.66,279.58 L 444.36,280.28 L 444.07,280.46 L 443.31,281.77 L 443.00,283.21 L 443.00,284.00 L 442.71,286.22 L 442.27,287.33 L 442.00,287.50 L 441.29,288.65 L 441.00,289.89 L 441.00,290.56 L 441.02,291.51 L 441.07,291.85 L 441.17,292.46 L 441.25,292.64 L 441.43,292.92 L 441.54,292.94 L 441.77,292.91 L 441.91,292.77 L 442.19,292.43 L 442.34,292.15 L 442.66,291.52 L 442.83,291.10 L 443.13,290.28 L 443.12,290.37 L 443.00,291.63 L 443.00,292.15 L 443.13,292.88 L 443.22,293.21 L 443.67,293.60 L 443.95,293.77 L 444.88,293.92 L 447.00,294.00 L 448.10,294.00 L 448.70,294.06 L 447.67,294.29 L 447.33,294.72 L 447.50,295.00 L 447.99,295.52 L 448.36,295.71 L 449.16,296.00 L 449.56,296.00 L 450.42,295.75 L 449.94,296.59 L 449.62,297.15 L 448.80,298.50 L 447.40,300.73 L 446.90,301.50 L 445.75,303.51 L 445.16,304.57 L 443.93,306.93 L 443.32,308.12 L 442.15,310.54 L 440.65,313.93 L 440.28,314.80 L 439.68,316.32 L 439.39,317.05 L 438.93,318.37 L 438.50,319.65 L 437.98,322.10 L 437.88,322.74 L 437.73,324.13 L 437.67,324.86 L 437.59,326.51 L 437.56,327.38 L 437.53,329.41 L 437.52,333.00 L 437.52,334.84 L 437.61,338.07 L 437.68,339.63 L 437.95,342.49 L 438.12,343.90 L 438.67,346.64 L 438.99,348.02 L 439.90,350.90 L 440.41,352.38 L 441.77,355.65 L 442.52,357.35 L 444.41,361.26 L 444.92,362.29 L 446.06,364.50 L 446.65,365.64 L 447.95,368.11 L 448.62,369.38 L 450.10,372.12 L 452.52,376.58 L 453.95,379.20 L 456.82,384.73 L 458.23,387.49 L 460.83,392.82 L 461.45,394.11 L 462.58,396.55 L 463.13,397.74 L 464.10,399.92 L 464.56,400.96 L 465.32,402.80 L 466.18,405.08 L 466.58,406.21 L 467.22,408.14 L 467.53,409.06 L 468.01,410.69 L 468.47,412.29 L 468.99,415.35 L 469.10,416.16 L 469.24,417.96 L 469.31,418.91 L 469.39,421.10 L 469.42,422.27 L 469.45,425.03 L 469.47,430.00 L 469.48,432.32 L 469.42,436.33 L 469.38,438.26 L 469.20,441.65 L 469.09,443.29 L 468.73,446.28 L 468.52,447.75 L 467.92,450.58 L 467.58,451.99 L 466.69,454.86 L 466.21,456.32 L 464.98,459.46 L 464.32,461.09 L 462.69,464.73 L 459.76,471.00 L 458.84,472.90 L 457.21,476.59 L 456.44,478.40 L 455.13,481.74 L 454.52,483.34 L 453.61,486.14 L 452.78,489.50 L 452.56,490.86 L 452.32,492.95 L 452.25,493.94 L 452.38,495.75 L 452.50,496.67 L 453.06,498.79 L 453.24,499.37 L 453.68,500.70 L 454.49,503.00 L 455.15,504.84 L 456.37,508.23 L 456.96,509.88 L 458.03,512.92 L 458.55,514.39 L 459.49,517.11 L 459.95,518.43 L 460.76,520.86 L 461.55,523.23 L 462.79,527.29 L 463.36,529.22 L 464.22,532.63 L 464.60,534.28 L 465.15,537.33 L 465.38,538.83 L 465.68,541.83 L 465.81,543.34 L 465.93,546.57 L 465.98,552.00 L 465.98,555.97 L 465.35,563.71 L 464.92,567.55 L 463.45,575.01 L 462.60,578.70 L 460.30,585.83 L 455.91,596.13 L 455.52,596.90 L 454.86,598.37 L 454.56,599.07 L 454.11,600.29 L 453.91,600.86 L 453.71,601.71 L 453.73,602.40 L 453.87,602.53 L 454.30,602.33 L 454.54,602.15 L 455.16,601.39 L 455.48,600.95 L 456.24,599.71 L 456.63,599.04 L 457.49,597.41 L 457.92,596.56 L 458.83,594.62 L 459.29,593.62 L 460.22,591.46 L 461.14,589.25 L 462.85,584.50 L 463.27,583.26 L 464.11,580.49 L 464.53,579.09 L 465.31,576.23 L 465.68,574.83 L 466.29,572.23 L 466.94,569.00 L 467.21,567.33 L 467.58,563.63 L 467.74,561.72 L 467.91,557.66 L 468.03,553.53 L 467.68,544.87 L 467.55,542.72 L 467.16,538.52 L 466.94,536.45 L 466.38,532.52 L 466.08,530.60 L 465.35,527.10 L 464.10,522.50 L 463.57,520.90 L 462.52,517.89 L 462.00,516.43 L 460.99,513.78 L 460.50,512.51 L 459.57,510.32 L 458.31,507.63 L 457.65,506.36 L 456.61,503.88 L 456.13,502.65 L 455.45,500.20 L 455.16,498.98 L 454.84,496.52 L 454.72,495.28 L 454.77,492.77 L 454.84,491.50 L 455.25,488.89 L 455.50,487.56 L 456.29,484.80 L 456.73,483.40 L 457.88,480.46 L 460.04,475.78 L 461.19,473.48 L 463.21,469.21 L 464.17,467.12 L 465.82,463.20 L 466.60,461.27 L 467.92,457.60 L 468.54,455.79 L 469.55,452.26 L 470.01,450.51 L 470.74,447.03 L 471.07,445.29 L 471.53,441.75 L 471.74,439.97 L 471.98,436.27 L 472.12,430.43 L 472.11,427.61 L 471.70,421.84 L 471.43,418.97 L 470.55,413.41 L 470.05,410.68 L 468.76,405.71 L 468.42,404.52 L 467.67,402.33 L 466.45,399.35 L 466.05,398.48 L 465.43,396.94 L 465.29,396.59 L 465.11,396.05 L 465.00,395.56 L 465.00,395.51 L 464.87,395.18 L 464.78,394.98 L 464.48,394.36 L 464.32,394.02 L 463.88,393.14 L 463.64,392.68 L 463.08,391.58 L 462.48,390.43 L 460.99,387.62 L 458.45,382.91 L 457.43,381.05 L 455.55,377.56 L 454.63,375.86 L 452.94,372.68 L 452.11,371.13 L 450.61,368.23 L 449.87,366.82 L 448.54,364.19 L 447.89,362.90 L 446.72,360.50 L 446.15,359.33 L 445.13,357.14 L 444.15,354.99 L 442.61,351.23 L 441.91,349.42 L 440.86,346.16 L 440.39,344.58 L 439.75,341.64 L 439.47,340.19 L 439.17,337.37 L 439.01,333.04 L 439.02,330.40 L 439.66,325.23 L 440.09,322.65 L 441.64,317.42 L 442.53,314.79 L 445.06,309.31 L 445.75,307.92 L 447.34,305.05 L 450.01,300.60 L 454.18,294.00 L 460.53,294.00 L 461.40,294.00 L 463.04,293.93 L 463.83,293.88 L 465.19,293.73 L 465.81,293.64 L 466.73,293.43 L 467.46,293.07 L 467.54,292.94 L 467.48,292.18 L 467.42,291.73 L 467.13,290.45 L 466.95,289.75 L 466.45,288.12 L 465.87,286.45 L 465.87,286.47 L 466.18,287.21 L 466.79,288.62 L 467.06,289.18 L 467.58,290.20 L 467.78,290.51 L 468.15,291.00 L 468.25,291.00 L 468.90,290.57 L 469.00,289.89 L 468.89,289.38 L 468.56,288.25 L 468.24,287.55 L 467.51,286.07 L 467.00,285.23 L 465.59,282.13 L 465.26,281.06 L 465.16,280.57 L 465.00,279.64 L 465.00,279.28 L 464.94,278.16 L 464.83,277.66 L 464.75,277.52 L 464.56,277.32 L 464.44,277.33 L 464.34,277.37 L 464.41,277.33 L 464.85,277.08 L 465.96,276.51 L 466.54,276.22 L 467.87,275.60 L 469.24,274.98 L 472.23,273.75 L 476.33,272.31 L 478.13,271.78 L 481.85,270.28 L 483.74,269.47 L 487.62,267.44 L 489.57,266.36 L 493.55,263.82 L 495.55,262.50 L 499.59,259.50 L 501.61,257.95 L 505.66,254.52 L 507.68,252.76 L 511.68,248.95 L 513.67,246.99 L 517.58,242.82 L 523.30,236.21 L 524.93,234.22 L 527.95,230.31 L 529.43,228.36 L 532.19,224.43 L 533.55,222.45 L 536.13,218.36 L 537.40,216.29 L 539.88,211.92 L 541.10,209.69 L 543.53,204.91 L 544.75,202.46 L 547.21,197.13 L 548.45,194.39 L 551.02,188.40 L 555.06,178.50 L 555.16,178.25 L 555.43,177.53 L 555.57,177.14 L 555.89,176.20 L 556.23,175.22 L 556.98,172.95 L 557.35,171.82 L 558.00,169.73 L 558.14,169.25 L 558.38,168.43 L 558.64,167.50 L 559.31,164.75 L 560.61,158.73 L 561.24,155.69 L 562.36,149.57 L 562.89,146.57 L 563.71,141.01 L 563.89,139.68 L 564.19,137.25 L 564.50,134.00 L 564.71,131.22 L 564.74,125.50 L 564.70,122.61 L 564.25,116.75 L 563.96,113.81 L 563.04,107.91 L 562.52,104.96 L 561.16,99.11 L 560.42,96.19 L 558.64,90.48 L 557.70,87.65 L 555.52,82.17 L 554.38,79.47 L 551.83,74.33 L 547.61,67.07 L 545.94,64.50 L 542.34,59.61 L 540.49,57.20 L 536.55,52.66 L 534.54,50.43 L 530.28,46.25 L 528.11,44.21 L 523.55,40.41 L 521.23,38.55 L 516.38,35.15 L 513.93,33.49 L 508.82,30.50 L 506.24,29.05 L 500.88,26.48 L 492.61,23.12 L 491.25,22.63 L 488.80,21.79 L 487.62,21.39 L 485.44,20.70 L 483.30,20.04 L 479.34,19.08 L 477.34,18.65 L 472.97,17.98 L 471.81,17.82 L 469.26,17.53 L 464.97,17.09 L 460.73,16.69 L 452.32,16.60 M 450.19,294.21 L 450.68,294.34 L 451.00,294.55 L 451.00,294.62 L 450.88,294.86 L 450.40,294.29 L 450.11,294.20 M 445.89,279.31 L 445.83,280.43 L 445.75,281.02 L 445.36,282.43 L 444.74,284.30 L 445.00,283.21 L 445.15,282.51 L 445.44,281.19 L 445.54,280.64 L 445.71,279.62 L 445.76,279.21 L 445.78,278.90 M 464.00,277.60 L 463.70,278.43 L 463.70,279.30 L 463.80,279.90 L 464.08,281.21 L 464.32,282.02 L 464.76,283.42 L 464.54,282.82 L 464.24,282.01 L 463.74,280.62 L 463.51,279.98 L 463.20,279.07 L 463.00,278.40 L 463.00,278.31 L 463.38,277.98 L 463.62,277.80 L 464.07,277.53 Z" fill="rgb(246,246,247)"/>
<path d="M 447.50,295.00 L 447.33,294.72 L 447.67,294.29 L 448.94,294.00 L 449.51,294.00 L 450.40,294.29 L 451.00,295.00 L 451.00,295.27 L 450.58,295.71 L 449.56,296.00 L 449.16,296.00 L 448.36,295.71 L 447.99,295.52 M 441.00,290.56 L 441.00,289.89 L 441.29,288.65 L 442.00,287.50 L 442.27,287.33 L 442.71,286.22 L 443.00,284.00 L 443.00,283.21 L 443.31,281.77 L 444.07,280.46 L 444.36,280.28 L 444.66,279.58 L 444.60,278.40 L 444.45,278.01 L 444.54,277.41 L 445.14,277.00 L 445.44,277.00 L 445.74,277.49 L 445.85,277.84 L 445.76,279.21 L 445.71,279.62 L 445.54,280.64 L 445.44,281.19 L 445.15,282.51 L 445.00,283.21 L 444.60,284.87 L 443.88,287.75 L 443.70,288.44 L 443.34,289.62 L 443.17,290.18 L 442.83,291.10 L 442.66,291.52 L 442.34,292.15 L 442.19,292.43 L 441.91,292.77 L 441.77,292.91 L 441.54,292.94 L 441.43,292.92 L 441.25,292.64 L 441.17,292.46 L 441.07,291.85 L 441.02,291.51 M 465.25,284.80 L 464.87,283.77 L 464.32,282.02 L 464.08,281.21 L 463.80,279.90 L 463.70,279.30 L 463.70,278.43 L 464.00,277.60 L 464.16,277.44 L 464.44,277.33 L 464.56,277.32 L 464.75,277.52 L 464.83,277.66 L 464.94,278.16 L 465.00,279.28 L 465.00,279.64 L 465.16,280.57 L 465.26,281.06 L 465.59,282.13 L 467.00,285.23 L 467.51,286.07 L 468.24,287.55 L 468.56,288.25 L 468.89,289.38 L 469.00,289.89 L 468.90,290.57 L 468.25,291.00 L 468.15,291.00 L 467.78,290.51 L 467.58,290.20 L 467.06,289.18 L 466.79,288.62 L 466.18,287.21 L 465.87,286.47 Z" fill="rgb(235,235,253)"/>
</g>
</svg>