<svg xmlns="http://www.w3.org/2000/svg" width="94" height="150" viewBox="0 0 94 150">
<g>
<path d="M 65.97,0.01 L 62.42,0.03 L 60.98,0.05 L 58.30,0.09 L 57.24,0.13 L 55.32,0.20 L 54.61,0.25 L 53.35,0.37 L 52.93,0.44 L 52.22,0.61 L 52.03,0.71 L 51.77,0.92 L 51.78,1.05 L 51.86,1.33 L 52.00,1.50 L 53.22,2.56 L 54.10,3.00 L 54.42,3.00 L 55.34,3.32 L 56.11,3.82 L 56.56,4.19 L 58.48,5.97 L 59.51,7.13 L 61.54,9.59 L 62.41,10.85 L 63.23,12.10 L 63.57,12.69 L 64.20,13.85 L 64.41,14.37 L 65.69,18.85 L 66.00,21.79 L 65.89,23.21 L 65.50,26.00 L 65.07,27.32 L 64.04,29.91 L 63.30,31.09 L 61.68,33.38 L 60.66,34.39 L 58.49,36.32 L 57.21,37.12 L 54.54,38.60 L 53.03,39.15 L 49.91,40.12 L 48.19,40.38 L 43.70,40.59 L 40.86,40.25 L 39.53,39.86 L 36.94,38.93 L 35.76,38.26 L 33.48,36.79 L 32.48,35.88 L 30.57,33.93 L 29.77,32.79 L 28.29,30.41 L 27.74,29.08 L 26.74,26.32 L 26.45,24.82 L 26.00,21.74 L 26.00,20.10 L 26.50,15.30 L 27.40,12.47 L 28.20,11.12 L 29.07,9.77 L 29.60,9.09 L 30.75,7.73 L 31.43,7.03 L 32.87,5.60 L 33.71,4.85 L 35.48,3.31 L 36.50,2.49 L 39.50,0.06 L 0.00,0.00 L 72.38,0.00 Z" fill="rgb(149,252,173)"/>
<path d="M 55.58,38.23 L 53.87,38.97 L 50.33,40.22 L 48.47,40.48 L 44.71,40.76 L 42.82,40.50 L 42.50,40.45 L 43.70,40.59 L 48.19,40.38 L 49.91,40.12 L 53.03,39.15 L 54.54,38.60 L 57.12,37.17 M 59.39,35.52 L 59.31,35.59 L 59.47,35.44 M 26.74,26.32 L 27.74,29.08 L 28.29,30.41 L 29.77,32.79 L 29.94,33.02 L 29.42,32.45 L 28.02,30.16 L 27.52,28.89 L 26.63,26.24 L 26.38,24.78 L 26.00,21.76 L 26.00,21.74 L 26.45,24.82 M 58.28,4.11 L 61.91,7.75 L 63.69,10.20 L 64.29,11.52 L 65.33,14.24 L 65.60,15.79 L 66.00,19.03 L 66.00,20.93 L 65.96,21.44 L 65.69,18.85 L 64.41,14.37 L 64.20,13.85 L 63.57,12.69 L 63.23,12.10 L 62.41,10.85 L 61.54,9.59 L 59.51,7.13 L 58.48,5.97 L 56.56,4.19 L 56.11,3.82 L 55.34,3.32 L 54.42,3.00 L 54.10,3.00 L 53.22,2.56 L 52.00,1.50 L 51.86,1.33 L 51.78,1.05 L 51.77,0.92 L 52.03,0.71 L 52.22,0.61 L 52.93,0.44 L 53.35,0.37 L 53.86,0.32 M 66.89,0.01 L 72.38,0.00 L 94.00,0.00 Z" fill="rgb(194,236,198)"/>
<path d="M 93.97,140.98 L 93.93,139.50 L 93.89,138.91 L 93.82,137.84 L 93.78,137.51 L 93.69,137.00 L 93.64,137.00 L 92.99,137.23 L 92.12,137.58 L 91.51,137.84 L 90.18,138.41 L 89.40,138.75 L 87.77,139.47 L 86.89,139.87 L 84.48,140.89 L 82.67,141.62 L 81.68,142.00 L 77.49,143.56 L 75.18,144.36 L 70.47,145.95 L 68.07,146.71 L 63.28,148.18 L 61.00,148.82 L 60.44,148.99 L 60.31,149.07 L 60.16,149.22 L 60.25,149.29 L 60.55,149.41 L 60.87,149.46 L 61.64,149.56 L 62.22,149.61 L 63.49,149.68 L 64.33,149.72 L 66.14,149.78 L 67.26,149.80 L 69.64,149.84 L 71.05,149.86 L 74.03,149.89 L 75.75,149.90 L 94.00,150.00 L 0.00,150.00 L 16.75,149.89 L 21.93,149.85 L 24.73,149.82 L 25.83,149.80 L 27.83,149.75 L 28.56,149.72 L 29.84,149.65 L 30.23,149.60 L 30.85,149.50 L 30.95,149.44 L 30.99,149.30 L 30.83,149.21 L 30.37,149.02 L 29.97,148.90 L 29.08,148.66 L 28.50,148.51 L 17.69,145.18 L 10.95,142.48 L 7.78,140.88 L 5.48,139.76 L 4.05,139.11 L 3.44,138.85 L 2.29,138.37 L 1.88,138.23 L 1.17,138.00 L 1.03,138.00 L 0.62,138.45 L 0.38,139.17 L 0.29,139.71 L 0.13,140.89 L 0.08,141.61 L 0.00,143.14 L 0.00,0.00 L 0.02,68.25 L 0.04,82.47 L 0.06,91.35 L 0.09,95.44 L 0.11,99.47 L 0.12,101.38 L 0.15,105.16 L 0.17,106.94 L 0.20,110.43 L 0.22,112.07 L 0.25,115.28 L 0.27,116.76 L 0.31,119.66 L 0.34,120.98 L 0.38,123.55 L 0.40,124.70 L 0.45,126.93 L 0.48,127.90 L 0.53,129.76 L 0.55,130.55 L 0.61,132.03 L 0.64,132.62 L 0.69,133.70 L 0.72,134.09 L 0.78,134.76 L 0.81,134.93 L 0.87,135.17 L 0.91,135.12 L 1.36,134.52 L 1.62,134.35 L 1.73,134.39 L 1.94,134.55 L 2.05,134.75 L 2.26,135.25 L 2.38,135.63 L 2.94,136.45 L 3.61,137.09 L 4.06,137.43 L 6.13,138.86 L 7.37,139.54 L 9.92,140.84 L 11.09,141.29 L 12.24,141.69 L 12.74,141.82 L 13.67,142.01 L 14.03,142.01 L 15.76,142.46 L 17.16,143.13 L 17.77,143.55 L 19.29,144.28 L 20.82,144.83 L 21.77,145.11 L 23.77,145.67 L 24.87,145.93 L 27.11,146.44 L 28.25,146.66 L 31.57,147.33 L 33.63,147.79 L 34.52,148.00 L 36.17,148.43 L 36.77,148.61 L 37.79,148.95 L 38.00,149.07 L 38.73,149.40 L 39.24,149.52 L 40.34,149.74 L 41.00,149.81 L 43.83,149.97 L 45.34,149.91 L 48.37,149.69 L 49.63,149.45 L 50.83,149.18 L 51.31,149.02 L 52.17,148.67 L 52.44,148.47 L 53.52,147.90 L 54.48,147.56 L 55.03,147.43 L 57.40,147.00 L 58.54,147.00 L 61.50,146.82 L 63.56,146.51 L 64.63,146.26 L 66.81,145.70 L 67.95,145.33 L 70.28,144.52 L 71.50,144.01 L 72.65,143.59 L 73.69,143.25 L 74.31,143.07 L 76.94,142.30 L 78.24,141.97 L 82.40,140.40 L 83.73,139.72 L 84.30,139.37 L 85.36,138.67 L 85.74,138.34 L 88.04,136.37 L 88.73,135.78 L 89.02,135.54 L 89.53,135.11 L 89.70,134.98 L 90.20,134.26 L 90.34,133.59 L 90.32,133.11 L 90.19,132.05 L 90.03,131.34 L 89.64,129.77 L 89.34,128.76 L 88.54,126.29 L 87.84,124.27 L 87.43,123.14 L 85.65,118.33 L 84.69,115.86 L 83.72,113.41 L 83.25,112.26 L 82.34,110.01 L 81.92,109.03 L 81.13,107.17 L 80.79,106.45 L 80.18,105.14 L 79.97,104.76 L 79.28,103.14 L 79.00,102.04 L 79.00,101.67 L 78.45,100.21 L 77.63,99.07 L 77.11,98.60 L 76.01,97.73 L 75.44,97.54 L 75.17,97.68 L 74.61,98.11 L 74.25,98.61 L 73.47,99.79 L 72.92,100.70 L 71.02,103.57 L 70.46,104.32 L 70.23,104.58 L 69.82,105.04 L 69.69,105.13 L 68.98,105.27 L 68.26,105.21 L 67.83,105.12 L 65.92,104.61 L 64.93,104.22 L 63.02,103.39 L 62.38,102.98 L 61.81,102.57 L 61.66,102.40 L 61.46,102.06 L 61.54,101.93 L 61.59,101.19 L 61.30,100.68 L 61.02,100.51 L 60.62,100.01 L 60.39,99.48 L 60.30,99.13 L 60.00,97.57 L 60.00,96.69 L 60.14,94.95 L 60.43,94.09 L 60.73,93.74 L 61.44,93.09 L 62.02,92.78 L 63.33,92.14 L 64.26,91.75 L 66.06,91.02 L 67.03,90.64 L 67.42,90.50 L 68.76,90.14 L 69.23,90.21 L 70.08,90.54 L 70.50,91.00 L 71.37,92.12 L 72.00,93.00 L 73.06,94.57 L 73.44,95.27 L 73.47,95.48 L 73.44,95.82 L 73.27,95.90 L 72.84,96.00 L 72.47,96.00 L 71.15,95.41 L 70.43,94.55 L 70.29,94.00 L 69.76,92.64 L 69.32,92.14 L 69.06,92.09 L 68.50,92.13 L 68.18,92.35 L 67.49,92.91 L 67.09,93.40 L 65.63,94.24 L 64.36,94.39 L 63.71,94.22 L 62.60,93.98 L 62.18,93.96 L 62.11,94.03 L 62.08,94.23 L 62.19,94.43 L 62.51,94.89 L 62.79,95.23 L 63.56,97.11 L 63.62,98.68 L 63.41,99.51 L 63.11,100.95 L 63.09,101.53 L 63.19,101.67 L 63.48,101.85 L 63.76,101.82 L 64.42,101.68 L 64.91,101.53 L 66.89,101.38 L 68.13,101.69 L 68.55,102.04 L 69.28,102.56 L 69.61,102.68 L 69.72,102.62 L 69.90,102.41 L 69.94,102.17 L 70.00,101.61 L 70.00,101.19 L 70.57,99.54 L 71.43,98.68 L 72.00,98.50 L 73.78,97.21 L 74.51,95.81 L 74.64,94.86 L 74.75,92.80 L 74.56,91.56 L 74.03,88.94 L 73.53,87.45 L 72.78,85.01 L 72.43,83.64 L 72.33,83.09 L 72.18,82.09 L 72.16,81.73 L 72.19,81.13 L 72.26,80.98 L 72.44,80.81 L 72.59,80.89 L 72.92,81.18 L 73.13,81.50 L 73.59,82.27 L 73.87,82.85 L 74.44,84.15 L 74.77,85.00 L 75.34,86.51 L 75.86,87.87 L 76.18,88.70 L 76.85,90.46 L 77.24,91.47 L 78.04,93.57 L 78.47,94.72 L 80.32,99.56 L 81.34,102.21 L 83.40,107.63 L 84.44,110.36 L 87.46,118.20 L 88.40,120.61 L 88.84,121.72 L 89.69,123.89 L 90.08,124.87 L 90.82,126.74 L 91.15,127.54 L 91.76,129.05 L 92.01,129.65 L 92.47,130.75 L 92.63,131.12 L 92.91,131.75 L 92.98,131.86 L 93.09,131.78 L 93.17,131.44 L 93.20,131.13 L 93.27,130.42 L 93.30,129.93 L 93.36,128.86 L 93.39,128.19 L 93.45,126.75 L 93.48,125.90 L 93.53,124.10 L 93.56,123.08 L 93.61,120.93 L 93.63,119.72 L 93.68,117.23 L 93.70,115.85 L 93.74,113.00 L 93.76,111.45 L 93.79,108.27 L 93.81,106.55 L 93.84,103.03 L 93.86,101.14 L 93.88,97.29 L 93.89,95.24 L 93.92,91.05 L 93.92,88.84 L 93.94,84.33 L 93.95,81.95 L 93.96,77.12 L 93.96,74.59 L 93.97,69.44 L 93.97,66.75 L 94.00,0.00 L 94.00,143.50 M 28.77,132.02 L 30.35,132.16 L 31.08,132.35 L 32.44,132.84 L 32.80,133.20 L 33.73,134.62 L 33.98,135.67 L 33.92,136.21 L 33.69,137.29 L 33.40,137.82 L 32.70,138.87 L 32.17,139.35 L 31.01,140.28 L 30.45,140.54 L 29.34,140.93 L 28.81,140.92 L 27.77,140.77 L 27.27,140.49 L 26.29,139.80 L 25.83,139.25 L 24.98,137.64 L 24.74,136.46 L 24.77,135.92 L 24.95,134.90 L 25.18,134.56 L 25.75,134.00 L 26.18,134.00 L 26.73,134.46 L 26.78,135.14 L 26.61,135.57 L 26.62,137.13 L 27.09,138.23 L 27.50,138.65 L 28.34,139.39 L 28.79,139.64 L 29.00,139.64 L 29.42,139.56 L 29.66,139.39 L 30.16,138.98 L 30.50,138.65 L 31.38,137.14 L 31.50,136.09 L 31.35,135.63 L 30.90,134.76 L 30.50,134.47 L 29.57,134.00 L 28.95,134.00 L 27.48,133.71 L 26.67,133.28 L 26.50,133.00 L 26.46,132.54 L 26.69,132.30 L 26.91,132.22 L 28.02,131.99 M 73.02,123.76 L 73.94,124.43 L 74.41,125.13 L 74.88,125.89 L 75.15,126.37 L 75.69,127.40 L 76.01,128.03 L 76.88,129.80 L 77.32,130.82 L 77.47,131.26 L 77.90,132.87 L 77.83,133.51 L 77.51,134.69 L 77.06,135.24 L 75.95,136.32 L 75.10,136.93 L 73.36,138.01 L 72.50,138.37 L 71.66,138.70 L 71.29,138.79 L 70.60,138.94 L 70.35,138.93 L 69.43,138.74 L 68.65,138.47 L 68.22,138.28 L 66.39,137.43 L 65.54,136.94 L 63.96,135.97 L 63.55,135.61 L 63.23,135.28 L 63.21,135.17 L 63.28,135.01 L 63.50,135.01 L 63.89,134.64 L 64.12,134.07 L 64.21,133.66 L 64.37,132.75 L 64.42,132.20 L 64.50,131.05 L 64.50,130.42 L 64.58,127.80 L 64.78,126.65 L 65.04,126.27 L 65.66,125.60 L 66.21,125.33 L 67.48,124.80 L 68.43,124.47 L 70.00,123.95 L 70.87,123.70 L 71.23,123.64 L 72.52,123.53 M 72.64,127.36 L 71.82,127.48 L 71.25,127.61 L 69.20,128.19 L 68.27,128.63 L 67.95,128.95 L 67.40,129.66 L 67.19,130.20 L 66.81,131.40 L 66.61,132.25 L 66.36,133.64 L 66.36,134.28 L 66.45,134.48 L 66.71,134.81 L 66.95,134.89 L 67.51,135.00 L 67.92,135.00 L 69.49,135.29 L 70.33,135.72 L 70.50,136.00 L 71.00,136.63 L 71.28,136.79 L 71.84,137.00 L 72.10,136.96 L 72.58,136.77 L 72.74,136.53 L 73.00,135.96 L 73.00,135.55 L 73.51,134.20 L 74.27,133.30 L 74.75,132.99 L 75.48,132.45 L 75.77,132.15 L 75.81,132.02 L 75.82,131.77 L 75.73,131.66 L 75.47,131.45 L 75.25,131.36 L 74.37,130.42 L 74.00,129.43 L 74.00,128.90 L 73.89,127.95 L 73.68,127.55 L 73.48,127.45 L 73.00,127.33 M 3.78,128.22 L 3.91,128.42 L 3.94,128.66 L 3.98,129.25 L 3.98,129.69 L 3.88,130.91 L 3.70,131.42 L 3.27,132.33 L 3.00,132.50 L 2.28,132.56 L 2.05,132.15 L 2.05,131.78 L 2.12,130.97 L 2.28,130.49 L 2.68,129.49 L 3.00,129.00 L 3.48,128.34 L 3.71,128.17 M 45.53,104.96 L 45.98,105.10 L 46.90,105.46 L 47.37,105.77 L 48.31,106.48 L 48.77,106.98 L 49.84,107.95 L 50.51,108.34 L 50.88,108.42 L 51.66,108.50 L 52.15,108.43 L 53.19,108.23 L 53.86,108.04 L 56.31,107.73 L 57.39,108.08 L 57.67,108.53 L 58.03,109.60 L 57.95,110.42 L 57.59,112.22 L 57.14,113.40 L 56.58,115.10 L 56.45,115.93 L 56.51,116.27 L 56.73,116.90 L 56.98,117.21 L 57.59,117.84 L 58.06,118.22 L 59.63,120.12 L 59.96,121.31 L 59.80,121.80 L 59.26,122.69 L 58.68,122.96 L 57.33,123.34 L 56.38,123.27 L 54.81,123.32 L 53.84,123.54 L 53.38,123.75 L 52.45,124.26 L 51.98,124.63 L 51.01,125.47 L 50.48,126.02 L 48.86,127.58 L 48.15,128.10 L 47.47,128.57 L 47.20,128.72 L 46.71,128.93 L 46.56,128.92 L 46.19,128.72 L 46.42,128.47 L 46.77,128.33 L 47.38,127.90 L 47.86,127.42 L 48.11,127.11 L 49.13,125.71 L 49.55,124.91 L 50.47,123.41 L 51.11,122.74 L 51.50,122.53 L 52.35,122.19 L 52.92,122.11 L 54.18,122.00 L 55.03,122.00 L 56.55,121.96 L 57.37,121.89 L 57.69,121.83 L 58.24,121.69 L 58.43,121.59 L 58.73,121.36 L 58.79,121.21 L 58.84,120.89 L 58.77,120.69 L 58.57,120.26 L 58.39,120.00 L 57.95,119.45 L 57.64,119.13 L 56.97,118.44 L 56.54,118.04 L 55.20,116.68 L 54.71,115.98 L 54.65,115.63 L 54.66,114.92 L 54.83,114.46 L 55.27,113.44 L 55.64,112.72 L 57.20,109.71 L 53.22,110.35 L 51.28,110.57 L 50.24,110.57 L 49.83,110.50 L 49.07,110.31 L 48.76,110.13 L 48.19,109.73 L 47.95,109.44 L 46.48,108.05 L 45.28,107.15 L 44.76,106.87 L 43.73,106.42 L 43.32,106.44 L 43.24,106.67 L 43.15,107.28 L 43.20,107.87 L 43.36,109.24 L 43.52,110.27 L 43.81,112.78 L 43.79,113.92 L 43.62,114.35 L 43.17,115.13 L 42.73,115.50 L 41.72,116.25 L 40.95,116.73 L 37.72,118.78 L 41.11,119.52 L 43.27,120.16 L 44.39,120.70 L 44.79,121.03 L 45.48,121.73 L 45.68,122.14 L 45.96,123.00 L 45.95,123.50 L 45.64,123.69 L 45.20,123.23 L 44.92,122.75 L 43.39,121.49 L 41.89,121.00 L 41.07,121.00 L 38.73,120.58 L 37.38,119.96 L 37.06,119.57 L 36.58,118.78 L 36.51,118.32 L 36.61,118.08 L 36.91,117.61 L 37.21,117.35 L 37.92,116.79 L 38.43,116.45 L 39.67,115.47 L 40.27,114.76 L 40.46,114.35 L 40.79,113.48 L 40.88,112.94 L 41.00,111.80 L 41.00,111.08 L 41.18,109.03 L 41.47,107.85 L 41.69,107.37 L 42.17,106.46 L 42.48,106.11 L 43.12,105.49 L 43.49,105.30 L 44.26,104.99 L 44.67,104.95 M 14.95,99.56 L 14.95,99.72 L 14.66,101.78 L 14.16,103.57 L 13.76,104.65 L 12.88,106.90 L 12.31,108.16 L 11.09,110.76 L 10.37,112.15 L 9.40,114.76 L 9.00,116.61 L 9.00,117.29 L 8.94,117.86 L 8.83,118.23 L 8.58,119.00 L 8.39,119.44 L 7.54,121.25 L 7.05,122.08 L 6.07,123.62 L 5.70,124.00 L 5.35,124.31 L 5.24,124.32 L 5.05,124.23 L 5.04,124.00 L 5.14,123.63 L 5.30,123.14 L 5.42,122.78 L 5.70,121.99 L 5.88,121.49 L 6.26,120.44 L 6.48,119.83 L 7.46,117.17 L 8.05,115.59 L 9.28,112.29 L 9.96,110.50 L 11.89,105.63 L 13.02,102.95 L 13.47,101.97 L 13.90,101.06 L 14.08,100.71 L 14.42,100.08 L 14.55,99.88 L 14.78,99.57 L 14.84,99.54 M 24.47,107.16 L 25.62,107.51 L 26.12,108.00 L 27.08,109.18 L 27.55,110.09 L 28.49,112.47 L 28.62,113.53 L 28.46,113.74 L 28.27,113.90 L 28.13,113.89 L 27.81,113.81 L 27.61,113.68 L 27.17,113.36 L 26.92,113.09 L 26.38,112.50 L 26.07,112.10 L 25.25,111.14 L 24.77,110.71 L 24.56,110.61 L 24.17,110.48 L 24.00,110.52 L 23.70,110.68 L 23.58,110.86 L 22.34,111.67 L 21.02,112.00 L 20.32,112.00 L 19.04,112.06 L 18.54,112.17 L 18.45,112.28 L 18.36,112.54 L 18.46,112.74 L 18.75,113.20 L 19.02,113.53 L 19.78,115.25 L 19.75,115.88 L 19.66,116.24 L 19.41,117.00 L 19.21,117.44 L 18.67,118.79 L 18.63,119.33 L 18.82,119.46 L 19.37,119.65 L 19.93,119.65 L 21.24,119.59 L 22.25,119.52 L 24.18,119.27 L 25.20,119.02 L 25.58,118.84 L 26.28,118.46 L 26.53,118.20 L 26.95,117.66 L 27.08,117.32 L 28.04,115.60 L 28.94,114.47 L 29.38,114.10 L 30.22,113.48 L 30.63,113.29 L 30.79,113.31 L 31.09,113.43 L 31.21,113.60 L 31.46,114.03 L 31.59,114.37 L 31.64,115.24 L 31.45,115.94 L 31.24,116.33 L 30.75,117.15 L 30.41,117.60 L 29.65,118.50 L 29.18,118.98 L 28.04,119.99 L 27.43,120.38 L 26.17,121.08 L 25.53,121.31 L 24.23,121.71 L 23.59,121.80 L 22.32,121.91 L 21.72,121.85 L 20.57,121.67 L 20.06,121.48 L 19.10,121.02 L 18.71,120.69 L 18.02,119.96 L 17.80,119.49 L 17.45,118.49 L 17.43,117.90 L 17.17,115.57 L 16.84,113.94 L 16.64,113.35 L 16.43,112.20 L 16.54,111.53 L 16.74,111.21 L 17.25,110.58 L 17.67,110.24 L 18.65,109.53 L 19.33,109.10 L 22.30,107.54 L 23.85,107.09 M 70.78,109.06 L 71.90,109.26 L 72.53,109.44 L 73.81,109.87 L 74.43,110.15 L 76.43,111.48 L 77.28,112.56 L 77.45,113.18 L 77.64,114.46 L 77.48,115.16 L 76.99,116.61 L 76.49,117.37 L 75.77,118.39 L 75.42,118.79 L 74.70,119.51 L 74.35,119.76 L 73.64,120.17 L 73.28,120.26 L 72.58,120.37 L 72.22,120.31 L 71.52,120.12 L 71.16,119.90 L 70.46,119.40 L 70.10,119.04 L 69.39,118.23 L 69.03,117.71 L 68.32,116.59 L 67.96,115.92 L 67.52,114.98 L 67.42,114.53 L 67.46,114.39 L 67.62,114.15 L 67.80,114.09 L 68.23,114.00 L 68.56,114.00 L 69.85,114.55 L 70.54,115.37 L 70.68,115.88 L 71.60,117.18 L 72.51,117.43 L 73.00,117.28 L 73.99,116.80 L 74.39,116.33 L 75.10,115.23 L 75.25,114.49 L 75.35,113.36 L 75.26,112.77 L 75.13,112.55 L 74.81,112.14 L 74.56,111.98 L 73.99,111.70 L 73.60,111.60 L 72.02,111.50 L 71.26,111.76 L 71.17,112.03 L 70.48,112.71 L 69.73,113.00 L 69.31,113.00 L 68.34,112.59 L 68.20,111.93 L 68.39,111.42 L 68.82,110.18 L 69.00,109.53 L 69.00,109.42 L 69.50,109.03 L 70.25,108.98 M 31.80,88.19 L 33.22,88.48 L 33.86,88.82 L 34.08,89.11 L 34.44,89.78 L 34.55,90.29 L 34.74,91.44 L 34.81,92.25 L 34.87,94.27 L 34.73,94.94 L 34.57,95.54 L 34.46,95.72 L 34.21,96.00 L 34.06,96.00 L 33.48,95.75 L 33.20,95.34 L 33.11,95.03 L 32.99,94.33 L 32.98,93.88 L 33.01,92.91 L 33.09,92.34 L 32.66,91.60 L 31.97,91.01 L 31.52,90.75 L 29.83,90.42 L 28.71,90.86 L 28.10,91.41 L 26.69,92.53 L 25.98,92.91 L 25.73,92.92 L 25.30,92.82 L 25.18,92.59 L 25.00,92.01 L 25.00,91.54 L 25.60,90.12 L 26.52,89.29 L 27.17,88.97 L 28.56,88.41 L 29.35,88.27 L 30.98,88.09 M 49.09,81.64 L 49.52,81.85 L 50.49,82.35 L 51.18,82.76 L 53.45,84.66 L 54.44,86.10 L 54.65,86.83 L 54.88,88.29 L 54.69,88.95 L 54.09,90.19 L 53.46,90.66 L 52.21,91.45 L 51.60,91.66 L 50.41,91.96 L 49.84,91.92 L 48.72,91.71 L 48.19,91.42 L 47.15,90.71 L 46.65,90.17 L 45.47,88.37 L 45.08,87.13 L 45.07,86.51 L 45.20,85.26 L 45.46,84.64 L 46.11,83.43 L 46.63,82.85 L 47.61,81.88 L 48.15,81.56 L 48.45,81.55 M 49.89,84.63 L 48.84,85.08 L 48.43,85.43 L 47.72,86.17 L 47.62,86.55 L 47.57,86.91 L 47.63,87.07 L 47.81,87.38 L 48.01,87.51 L 48.56,88.23 L 48.62,88.81 L 48.46,89.07 L 48.37,89.32 L 48.44,89.43 L 48.62,89.64 L 48.80,89.73 L 49.74,90.00 L 50.44,90.00 L 51.70,89.89 L 52.29,89.70 L 52.48,89.52 L 52.80,89.10 L 52.89,88.78 L 53.00,88.08 L 53.00,87.61 L 52.54,85.74 L 51.86,84.78 L 51.43,84.61 M 22.43,80.50 L 21.95,82.77 L 21.57,83.77 L 21.17,84.72 L 20.96,85.10 L 20.53,85.79 L 20.32,86.00 L 19.52,86.72 L 19.21,86.91 L 19.16,86.84 L 19.11,86.59 L 19.17,86.29 L 19.35,85.56 L 19.52,85.00 L 20.44,82.35 L 21.25,80.33 L 21.62,79.50 L 23.00,76.50 M 64.59,28.36 L 63.95,29.75 L 62.56,32.45 L 61.71,33.57 L 59.91,35.65 L 58.92,36.34 L 57.87,37.50 L 57.75,38.07 L 57.78,38.48 L 57.90,39.40 L 58.06,40.04 L 58.45,41.46 L 58.76,42.41 L 59.47,44.48 L 59.95,45.81 L 61.00,48.69 L 61.67,50.48 L 62.37,52.33 L 62.76,53.36 L 63.56,55.48 L 64.00,56.64 L 66.81,64.12 L 67.67,66.43 L 68.07,67.51 L 68.85,69.60 L 69.19,70.55 L 69.86,72.37 L 70.15,73.15 L 70.69,74.64 L 70.90,75.24 L 71.29,76.33 L 71.42,76.71 L 71.64,77.36 L 71.68,77.50 L 72.23,79.50 L 70.78,77.50 L 70.03,76.26 L 69.40,75.08 L 69.05,74.37 L 67.60,71.27 L 66.95,69.67 L 65.92,67.34 L 65.25,66.02 L 64.92,65.48 L 64.26,64.46 L 63.93,64.06 L 63.28,63.35 L 62.96,63.10 L 62.31,62.67 L 61.98,62.57 L 61.33,62.43 L 60.99,62.47 L 60.33,62.62 L 59.99,62.80 L 59.30,63.22 L 58.95,63.54 L 57.98,64.56 L 57.63,65.16 L 57.60,65.51 L 57.63,66.25 L 57.78,66.76 L 58.17,67.87 L 58.50,68.65 L 59.16,70.44 L 59.45,71.46 L 59.51,71.89 L 59.57,72.70 L 59.51,73.03 L 59.34,73.64 L 59.16,73.88 L 58.74,74.31 L 58.43,74.45 L 57.76,74.71 L 57.32,74.78 L 56.37,74.88 L 55.80,74.87 L 54.57,74.83 L 53.85,74.76 L 51.62,74.63 L 50.39,74.66 L 49.90,74.73 L 49.00,74.92 L 48.67,75.07 L 48.07,75.41 L 47.88,75.65 L 46.18,76.64 L 44.64,76.97 L 43.84,76.96 L 42.26,76.83 L 41.65,76.60 L 41.07,76.34 L 40.85,76.17 L 40.48,75.80 L 40.39,75.58 L 40.33,73.98 L 40.63,72.69 L 40.93,72.13 L 41.38,71.00 L 41.43,70.34 L 41.31,70.01 L 40.97,69.33 L 40.64,68.94 L 39.87,68.11 L 39.31,67.58 L 38.22,66.50 L 37.69,65.88 L 37.53,65.62 L 37.25,65.16 L 37.21,64.98 L 37.18,64.68 L 37.26,64.59 L 37.48,64.45 L 37.67,64.45 L 38.11,64.49 L 38.42,64.58 L 39.09,64.81 L 39.50,65.00 L 40.39,65.43 L 40.90,65.72 L 42.53,66.76 L 43.25,67.43 L 43.47,67.81 L 43.83,68.62 L 43.90,69.14 L 43.97,70.26 L 43.94,71.00 L 43.88,72.80 L 43.87,73.76 L 43.88,74.13 L 43.93,74.78 L 43.98,75.00 L 44.10,75.36 L 44.20,75.45 L 44.42,75.54 L 44.57,75.49 L 44.92,75.34 L 45.14,75.17 L 45.63,74.78 L 45.93,74.50 L 46.59,73.90 L 46.98,73.52 L 48.64,72.04 L 49.51,71.45 L 49.89,71.34 L 50.65,71.21 L 51.07,71.30 L 51.96,71.57 L 52.53,71.83 L 54.13,72.51 L 55.03,72.84 L 55.39,72.93 L 56.05,73.08 L 56.31,73.08 L 56.75,73.05 L 56.90,72.96 L 57.14,72.73 L 57.18,72.54 L 57.22,72.12 L 57.17,71.83 L 57.02,71.21 L 56.87,70.82 L 56.53,69.99 L 56.30,69.50 L 55.39,67.44 L 55.13,66.47 L 55.21,66.06 L 55.50,65.26 L 55.88,64.78 L 56.79,63.74 L 57.50,63.00 L 60.37,60.00 L 55.69,60.00 L 53.87,59.93 L 52.80,59.81 L 52.38,59.73 L 51.61,59.55 L 51.37,59.44 L 51.00,59.20 L 51.00,59.08 L 50.80,58.48 L 50.47,57.88 L 50.24,57.52 L 49.12,55.92 L 48.41,55.08 L 47.47,53.88 L 46.99,53.18 L 46.83,52.90 L 46.57,52.40 L 46.54,52.24 L 46.55,52.00 L 46.66,52.00 L 47.22,52.28 L 47.79,52.71 L 48.13,53.03 L 49.67,54.54 L 50.50,55.50 L 53.50,59.00 L 56.75,56.90 L 58.93,55.07 L 59.74,53.76 L 59.85,52.97 L 59.85,51.29 L 59.56,50.22 L 59.22,49.11 L 58.98,48.48 L 58.45,47.17 L 58.11,46.44 L 56.26,42.37 L 46.95,42.49 L 44.49,42.54 L 43.06,42.59 L 42.45,42.62 L 40.26,42.78 L 39.51,42.90 L 38.21,43.17 L 37.84,43.36 L 37.25,43.78 L 37.16,44.06 L 36.29,45.78 L 35.36,47.23 L 34.85,47.88 L 33.54,50.26 L 33.00,51.97 L 33.00,52.61 L 32.84,53.78 L 32.59,54.72 L 32.41,55.23 L 31.55,57.33 L 31.00,58.23 L 29.59,60.94 L 29.26,61.75 L 29.16,62.08 L 29.00,62.69 L 29.00,62.87 L 28.78,63.92 L 28.44,64.98 L 28.19,65.64 L 27.04,68.56 L 26.37,70.09 L 25.69,71.60 L 25.37,72.29 L 24.73,73.61 L 24.45,74.13 L 23.94,75.08 L 23.75,75.36 L 23.43,75.76 L 23.36,75.70 L 23.43,75.28 L 23.60,74.66 L 23.74,74.21 L 24.06,73.21 L 24.27,72.59 L 24.71,71.26 L 24.98,70.50 L 26.13,67.18 L 26.81,65.26 L 28.23,61.29 L 28.99,59.22 L 30.51,55.06 L 31.25,53.08 L 32.70,49.20 L 33.34,47.53 L 33.96,45.92 L 34.24,45.21 L 34.77,43.86 L 35.00,43.31 L 35.42,42.28 L 35.58,41.91 L 35.87,41.26 L 35.96,41.10 L 36.13,40.20 L 35.93,39.50 L 35.67,39.09 L 35.02,38.21 L 34.51,37.68 L 33.36,36.55 L 33.22,36.43 L 34.61,37.42 L 35.47,37.98 L 37.25,38.89 L 38.15,39.30 L 40.00,39.91 L 40.93,40.18 L 42.82,40.50 L 44.71,40.76 L 48.47,40.48 L 50.33,40.22 L 53.87,38.97 L 55.58,38.23 L 58.66,36.10 L 59.39,35.52 L 60.72,34.22 L 61.37,33.54 L 62.51,32.05 L 63.05,31.28 L 63.97,29.61 L 64.40,28.76 L 64.73,27.86 M 29.77,32.83 L 29.62,32.68 L 29.60,32.65 M 28.68,31.23 L 28.11,30.36 L 28.04,30.19 M 26.38,24.78 L 26.63,26.24 L 27.52,28.89 L 27.93,29.93 L 27.57,29.07 L 26.64,26.41 L 26.38,24.93 L 26.00,21.84 L 26.00,21.76 M 65.32,14.20 L 65.60,15.73 L 66.00,18.92 L 66.00,19.03 L 65.60,15.79 L 65.33,14.24 L 64.30,11.54 M 64.28,11.49 L 64.29,11.52 L 64.05,11.00 M 63.67,10.18 L 63.68,10.19 L 62.94,9.17 M 61.90,7.74 L 58.28,4.11 L 61.90,7.73 Z" fill="rgb(235,122,157)"/>
<path d="M 26.67,133.28 L 27.48,133.71 L 28.95,134.00 L 29.57,134.00 L 30.50,134.47 L 30.90,134.76 L 31.35,135.63 L 31.50,136.09 L 31.38,137.14 L 30.50,138.65 L 30.16,138.98 L 30.00,139.11 L 30.00,139.00 L 29.71,138.29 L 29.27,138.00 L 29.00,138.00 L 28.29,138.29 L 28.00,138.72 L 28.00,139.00 L 28.02,139.11 L 27.50,138.65 L 27.09,138.23 L 26.62,137.13 L 26.61,135.57 L 26.78,135.14 L 26.73,134.46 L 26.18,134.00 L 26.13,134.00 L 26.65,133.71 M 24.77,135.98 L 24.77,135.93 L 24.77,135.93 M 43.43,109.25 L 43.76,109.43 L 43.99,109.45 L 44.50,109.42 L 44.82,109.34 L 46.49,109.46 L 47.58,110.00 L 47.94,110.43 L 48.74,111.25 L 49.16,111.54 L 49.98,112.00 L 50.26,112.00 L 50.36,111.76 L 50.12,111.39 L 49.87,111.12 L 49.29,110.52 L 49.01,110.28 L 49.07,110.31 L 49.83,110.50 L 50.24,110.57 L 51.28,110.57 L 53.22,110.35 L 57.20,109.71 L 55.64,112.72 L 55.27,113.44 L 54.83,114.46 L 54.66,114.92 L 54.65,115.63 L 54.71,115.98 L 55.20,116.68 L 56.54,118.04 L 56.97,118.44 L 57.64,119.13 L 57.95,119.45 L 58.39,120.00 L 58.57,120.26 L 58.77,120.69 L 58.84,120.89 L 58.79,121.21 L 58.73,121.36 L 58.43,121.59 L 58.24,121.69 L 57.69,121.83 L 57.37,121.89 L 56.55,121.96 L 55.03,122.00 L 54.18,122.00 L 52.92,122.11 L 52.35,122.19 L 51.50,122.53 L 51.11,122.74 L 50.47,123.41 L 49.55,124.91 L 49.13,125.71 L 48.11,127.11 L 47.86,127.42 L 47.38,127.90 L 46.77,128.33 L 46.42,128.47 L 46.19,128.72 L 46.56,128.92 L 46.71,128.93 L 47.20,128.72 L 47.47,128.57 L 48.15,128.10 L 48.49,127.85 L 47.39,128.66 L 46.98,128.87 L 46.28,129.13 L 46.18,129.00 L 46.12,128.83 L 46.17,128.67 L 46.32,128.29 L 46.48,128.03 L 46.59,127.41 L 46.53,126.82 L 46.45,126.45 L 45.95,124.86 L 45.52,124.03 L 44.63,122.59 L 44.39,122.31 L 44.92,122.75 L 45.20,123.23 L 45.64,123.69 L 45.95,123.50 L 45.96,123.00 L 45.68,122.14 L 45.48,121.73 L 44.79,121.03 L 44.39,120.70 L 43.27,120.16 L 41.11,119.52 L 37.72,118.78 L 40.95,116.73 L 41.72,116.25 L 42.73,115.50 L 43.17,115.13 L 43.62,114.35 L 43.79,113.92 L 43.81,112.78 L 43.52,110.27 L 43.36,109.24 L 43.36,109.20 M 49.00,127.45 L 50.48,126.02 L 49.14,127.33 M 43.39,121.49 L 43.39,121.50 L 43.38,121.49 M 41.89,121.00 L 42.15,121.09 L 41.64,121.00 M 73.92,120.13 L 73.42,120.30 L 72.44,120.47 L 71.95,120.32 L 71.57,120.13 L 72.22,120.31 L 72.58,120.37 L 73.28,120.26 L 73.64,120.17 L 74.35,119.76 L 74.59,119.59 M 71.16,119.90 L 71.43,120.06 L 70.99,119.85 L 70.76,119.62 M 75.44,118.83 L 74.93,119.32 L 74.77,119.45 L 75.42,118.79 L 75.68,118.50 M 73.60,111.60 L 73.99,111.70 L 74.56,111.98 L 74.81,112.14 L 75.13,112.55 L 75.26,112.77 L 75.35,113.36 L 75.25,114.49 L 75.10,115.23 L 74.39,116.33 L 73.99,116.80 L 73.00,117.28 L 72.51,117.43 L 71.60,117.18 L 70.68,115.88 L 70.54,115.37 L 69.85,114.55 L 68.56,114.00 L 68.23,114.00 L 67.80,114.09 L 67.66,114.13 L 67.70,114.00 L 68.02,114.00 L 68.63,113.73 L 68.71,113.34 L 68.56,113.09 L 68.46,112.64 L 69.31,113.00 L 69.73,113.00 L 70.48,112.71 L 71.17,112.03 L 71.26,111.76 L 72.02,111.50 M 67.96,115.92 L 68.32,116.59 L 68.32,116.60 L 68.13,116.31 L 67.89,115.79 L 67.83,115.65 M 77.39,112.65 L 77.53,113.11 L 77.52,113.61 L 77.45,113.18 L 77.28,112.56 L 77.00,112.21 M 68.39,111.42 L 68.36,111.50 L 68.46,110.95 L 68.67,110.53 L 68.75,110.40 M 74.77,110.37 L 76.07,111.23 L 76.11,111.27 L 74.73,110.35 M 72.62,109.39 L 74.09,109.97 L 74.26,110.07 L 73.81,109.87 L 72.53,109.44 L 71.90,109.26 L 70.78,109.06 L 70.37,109.00 L 70.56,109.00 M 44.76,106.87 L 45.28,107.15 L 46.48,108.05 L 47.42,108.94 L 46.03,107.84 L 45.23,107.22 L 44.92,106.99 L 44.73,106.86 M 31.52,90.75 L 31.97,91.01 L 32.66,91.60 L 33.09,92.34 L 33.01,92.91 L 32.98,93.88 L 32.99,94.33 L 33.11,95.03 L 33.20,95.34 L 33.48,95.75 L 33.65,95.82 L 33.31,95.81 L 32.17,95.85 L 31.54,95.96 L 30.30,96.24 L 29.84,96.44 L 28.42,96.49 L 28.06,96.21 L 27.92,95.97 L 27.64,95.44 L 27.52,95.07 L 26.78,93.61 L 26.19,93.00 L 25.93,93.00 L 25.81,92.92 L 25.98,92.91 L 26.69,92.53 L 28.10,91.41 L 28.71,90.86 L 29.83,90.42 M 34.89,94.04 L 34.82,94.89 L 34.71,95.16 L 34.65,95.25 L 34.73,94.94 L 34.87,94.27 L 34.81,92.31 M 34.44,89.76 L 34.55,90.26 L 34.74,91.40 L 34.81,92.19 L 34.81,92.23 L 34.74,91.44 L 34.55,90.29 L 34.44,89.78 L 34.09,89.13 M 51.86,84.78 L 52.54,85.74 L 53.00,87.61 L 53.00,88.08 L 52.89,88.78 L 52.80,89.10 L 52.48,89.52 L 52.29,89.70 L 51.70,89.89 L 50.44,90.00 L 49.74,90.00 L 48.80,89.73 L 48.62,89.64 L 48.44,89.43 L 48.37,89.32 L 48.46,89.07 L 48.62,88.81 L 48.56,88.23 L 48.01,87.51 L 47.81,87.38 L 47.63,87.07 L 47.57,86.91 L 47.62,86.55 L 47.72,86.17 L 48.43,85.43 L 48.84,85.08 L 49.89,84.63 L 51.43,84.61 M 34.08,89.10 L 34.08,89.11 L 34.00,89.00 M 33.86,88.81 L 33.86,88.82 L 33.60,88.68 M 46.83,52.90 L 46.99,53.18 L 47.47,53.88 L 48.41,55.08 L 49.12,55.92 L 50.24,57.52 L 50.47,57.88 L 50.80,58.48 L 51.00,59.08 L 51.00,59.20 L 51.37,59.44 L 51.61,59.55 L 52.38,59.73 L 52.80,59.81 L 53.87,59.93 L 55.69,60.00 L 60.37,60.00 L 57.50,63.00 L 56.79,63.74 L 55.88,64.78 L 55.50,65.26 L 55.21,66.06 L 55.13,66.47 L 55.39,67.44 L 56.30,69.50 L 56.53,69.99 L 56.87,70.82 L 57.02,71.21 L 57.17,71.83 L 57.22,72.12 L 57.18,72.54 L 57.14,72.73 L 56.90,72.96 L 56.75,73.05 L 56.31,73.08 L 56.05,73.08 L 55.39,72.93 L 55.03,72.84 L 54.13,72.51 L 52.53,71.83 L 51.96,71.57 L 51.07,71.30 L 50.65,71.21 L 49.89,71.34 L 49.51,71.45 L 48.64,72.04 L 46.98,73.52 L 46.59,73.90 L 45.93,74.50 L 45.63,74.78 L 45.14,75.17 L 44.92,75.34 L 44.57,75.49 L 44.42,75.54 L 44.20,75.45 L 44.10,75.36 L 43.98,75.00 L 43.93,74.78 L 43.88,74.13 L 43.87,73.76 L 43.88,72.80 L 43.94,71.00 L 43.97,70.26 L 43.90,69.14 L 43.83,68.62 L 43.47,67.81 L 43.25,67.43 L 42.53,66.76 L 40.90,65.72 L 40.39,65.43 L 39.50,65.00 L 39.09,64.81 L 38.42,64.58 L 38.11,64.49 L 37.67,64.45 L 37.48,64.45 L 37.31,64.56 L 37.24,64.37 L 37.36,63.86 L 37.85,62.91 L 38.43,62.54 L 39.83,61.88 L 40.86,61.68 L 43.02,60.87 L 44.18,60.01 L 44.63,59.41 L 45.43,58.12 L 45.70,57.31 L 46.14,55.58 L 46.22,54.55 L 46.51,52.71 L 46.62,52.50 M 47.12,52.21 L 47.44,52.34 L 47.65,52.49 L 48.09,52.85 L 48.36,53.12 L 48.94,53.73 L 49.30,54.12 L 49.60,54.46 L 48.13,53.03 L 47.79,52.71 L 47.22,52.28 L 47.07,52.20 M 25.18,134.56 L 24.95,134.90 L 24.78,135.89 L 24.93,134.91 L 25.16,134.56 L 25.72,134.00 L 25.75,134.00 Z" fill="rgb(248,237,200)"/>
<path d="M 11.55,141.35 L 12.63,141.72 L 13.06,141.83 L 13.82,142.01 L 14.03,142.01 L 13.67,142.01 L 12.74,141.82 L 12.24,141.69 L 11.09,141.29 L 9.92,140.84 L 8.16,139.94 M 29.71,138.29 L 30.00,139.00 L 30.00,139.28 L 29.71,139.71 L 29.00,140.00 L 28.72,140.00 L 28.29,139.71 L 28.11,139.53 L 28.00,139.00 L 28.00,138.72 L 28.29,138.29 L 29.00,138.00 L 29.27,138.00 M 2.12,130.97 L 2.05,131.78 L 2.05,132.15 L 2.28,132.56 L 3.00,132.50 L 3.22,132.37 L 3.20,132.40 L 2.90,132.70 L 2.15,134.31 L 2.34,135.49 L 2.76,136.10 L 3.54,137.02 L 2.94,136.45 L 2.38,135.63 L 2.26,135.25 L 2.05,134.75 L 1.94,134.55 L 1.73,134.39 L 1.62,134.35 L 1.36,134.52 L 0.91,135.12 L 0.87,135.17 L 0.81,134.93 L 0.78,134.76 L 0.72,134.09 L 0.69,133.70 L 0.65,132.87 L 0.77,132.78 L 1.06,132.44 L 1.24,132.19 L 2.02,131.01 L 2.26,130.56 M 19.65,114.51 L 20.00,115.55 L 20.00,115.98 L 20.24,116.69 L 20.62,117.19 L 20.90,117.44 L 22.21,118.40 L 23.05,118.71 L 24.49,119.19 L 24.18,119.27 L 22.25,119.52 L 21.24,119.59 L 19.93,119.65 L 19.37,119.65 L 18.82,119.46 L 18.63,119.33 L 18.67,118.79 L 19.21,117.44 L 19.41,117.00 L 19.66,116.24 L 19.75,115.88 L 19.78,115.25 L 19.05,113.59 M 26.95,117.66 L 26.93,117.69 L 26.95,117.64 L 26.98,117.57 M 29.38,114.10 L 29.38,114.10 L 29.93,113.70 M 30.22,113.48 L 30.22,113.48 L 30.32,113.44 M 18.80,113.20 L 18.97,113.47 L 18.75,113.20 L 18.67,113.07 M 43.72,106.24 L 44.12,106.45 L 44.34,106.58 L 44.92,106.99 L 45.23,107.22 L 46.03,107.84 L 47.50,109.00 L 48.02,109.41 L 48.89,110.16 L 49.29,110.52 L 49.87,111.12 L 50.12,111.39 L 50.36,111.76 L 50.26,112.00 L 49.98,112.00 L 49.16,111.54 L 48.74,111.25 L 47.94,110.43 L 47.58,110.00 L 46.49,109.46 L 44.82,109.34 L 44.50,109.42 L 43.99,109.45 L 43.76,109.43 L 43.43,109.25 L 43.28,109.14 L 43.10,108.75 L 43.00,107.91 L 43.00,107.29 L 43.08,106.54 L 43.15,106.25 L 43.58,106.20 Z" fill="rgb(243,190,205)"/>
<path d="M 93.78,137.51 L 93.82,137.84 L 93.89,138.91 L 93.93,139.50 L 93.97,140.98 L 94.00,143.50 L 94.00,150.00 L 75.75,149.90 L 74.03,149.89 L 71.05,149.86 L 69.64,149.84 L 67.26,149.80 L 66.14,149.78 L 64.33,149.72 L 63.49,149.68 L 62.22,149.61 L 61.64,149.56 L 60.87,149.46 L 60.55,149.41 L 60.25,149.29 L 60.16,149.22 L 60.31,149.07 L 60.44,148.99 L 61.00,148.82 L 63.28,148.18 L 68.07,146.71 L 70.47,145.95 L 75.18,144.36 L 77.49,143.56 L 81.68,142.00 L 82.67,141.62 L 84.48,140.89 L 86.89,139.87 L 87.77,139.47 L 89.40,138.75 L 90.18,138.41 L 91.51,137.84 L 92.12,137.58 L 92.99,137.23 L 93.64,137.00 L 93.69,137.00 M 1.88,138.23 L 2.29,138.37 L 3.44,138.85 L 4.05,139.11 L 5.48,139.76 L 7.78,140.88 L 10.95,142.48 L 17.69,145.18 L 28.50,148.51 L 29.08,148.66 L 29.97,148.90 L 30.37,149.02 L 30.83,149.21 L 30.99,149.30 L 30.95,149.44 L 30.85,149.50 L 30.23,149.60 L 29.84,149.65 L 28.56,149.72 L 27.83,149.75 L 25.83,149.80 L 24.73,149.82 L 21.93,149.85 L 16.75,149.89 L 0.00,150.00 L 0.00,143.14 L 0.08,141.61 L 0.13,140.89 L 0.29,139.71 L 0.38,139.17 L 0.62,138.45 L 1.03,138.00 L 1.17,138.00 M 6.53,139.20 L 6.52,139.19 L 6.37,139.09 M 73.48,127.45 L 73.68,127.55 L 73.89,127.95 L 74.00,128.90 L 74.00,129.43 L 74.37,130.42 L 75.25,131.36 L 75.47,131.45 L 75.73,131.66 L 75.82,131.77 L 75.81,132.02 L 75.77,132.15 L 75.48,132.45 L 74.75,132.99 L 74.27,133.30 L 73.51,134.20 L 73.00,135.55 L 73.00,135.96 L 72.74,136.53 L 72.58,136.77 L 72.10,136.96 L 71.84,137.00 L 71.28,136.79 L 71.00,136.63 L 70.50,136.00 L 70.33,135.72 L 69.49,135.29 L 67.92,135.00 L 67.51,135.00 L 66.95,134.89 L 66.71,134.81 L 66.45,134.48 L 66.36,134.28 L 66.36,133.64 L 66.61,132.25 L 66.81,131.40 L 67.19,130.20 L 67.40,129.66 L 67.95,128.95 L 68.27,128.63 L 69.20,128.19 L 71.25,127.61 L 71.82,127.48 L 72.64,127.36 L 73.00,127.33 M 2.37,135.54 L 2.34,135.49 L 2.21,134.68 M 2.16,134.39 L 2.15,134.31 L 2.34,133.89 M 39.50,0.06 L 36.50,2.49 L 35.48,3.31 L 33.71,4.85 L 32.87,5.60 L 31.43,7.03 L 30.75,7.73 L 29.60,9.09 L 29.07,9.77 L 28.20,11.12 L 27.40,12.47 L 26.50,15.30 L 26.00,20.10 L 26.00,21.84 L 26.38,24.93 L 26.64,26.41 L 27.57,29.07 L 28.11,30.36 L 29.62,32.68 L 32.59,35.87 L 33.36,36.55 L 34.51,37.68 L 35.02,38.21 L 35.67,39.09 L 35.93,39.50 L 36.13,40.20 L 35.96,41.10 L 35.87,41.26 L 35.58,41.91 L 35.42,42.28 L 35.00,43.31 L 34.77,43.86 L 34.24,45.21 L 33.96,45.92 L 33.34,47.53 L 32.70,49.20 L 31.25,53.08 L 30.51,55.06 L 28.99,59.22 L 28.23,61.29 L 26.81,65.26 L 26.13,67.18 L 24.98,70.50 L 24.71,71.26 L 24.27,72.59 L 24.06,73.21 L 23.74,74.21 L 23.60,74.66 L 23.43,75.28 L 23.36,75.70 L 23.43,75.76 L 23.75,75.36 L 23.94,75.08 L 24.45,74.13 L 24.73,73.61 L 25.37,72.29 L 25.69,71.60 L 25.89,71.16 L 23.93,75.92 L 23.32,77.70 L 23.08,78.48 L 22.67,79.96 L 22.57,80.51 L 22.00,82.54 L 22.43,80.50 L 23.00,76.50 L 21.62,79.50 L 21.25,80.33 L 20.44,82.35 L 19.52,85.00 L 19.35,85.56 L 19.17,86.29 L 19.11,86.59 L 19.16,86.84 L 19.21,86.91 L 19.52,86.72 L 20.32,86.00 L 20.53,85.79 L 20.96,85.10 L 21.17,84.72 L 21.57,83.77 L 21.89,82.93 L 21.66,83.77 L 21.27,84.72 L 21.07,85.10 L 20.68,85.79 L 20.50,86.00 L 19.80,87.04 L 19.25,88.04 L 18.95,88.66 L 17.73,91.39 L 17.14,92.90 L 16.02,95.95 L 15.63,97.25 L 15.28,98.49 L 15.17,99.00 L 15.00,99.92 L 15.00,100.22 L 14.65,102.08 L 14.09,103.85 L 13.67,104.92 L 13.17,106.17 L 13.76,104.65 L 14.16,103.57 L 14.66,101.78 L 14.95,99.72 L 14.95,99.56 L 14.84,99.54 L 14.78,99.57 L 14.55,99.88 L 14.42,100.08 L 14.08,100.71 L 13.90,101.06 L 13.47,101.97 L 13.02,102.95 L 11.89,105.63 L 9.96,110.50 L 9.28,112.29 L 8.05,115.59 L 7.46,117.17 L 6.48,119.83 L 6.26,120.44 L 5.88,121.49 L 5.70,121.99 L 5.42,122.78 L 5.30,123.14 L 5.14,123.63 L 5.04,124.00 L 5.05,124.23 L 5.24,124.32 L 5.35,124.31 L 5.70,124.00 L 6.07,123.62 L 7.05,122.08 L 7.54,121.25 L 8.39,119.44 L 8.58,119.00 L 8.62,118.87 L 8.41,119.76 L 7.54,121.58 L 6.99,122.28 L 5.39,125.07 L 4.52,127.25 L 4.35,128.17 L 3.92,129.76 L 3.96,129.55 L 3.95,129.11 L 3.89,128.58 L 3.84,128.38 L 3.66,128.35 L 3.56,128.40 L 3.21,128.89 L 2.43,130.25 L 2.02,131.01 L 1.24,132.19 L 1.06,132.44 L 0.77,132.78 L 0.47,133.00 L 0.45,133.00 L 0.42,132.65 L 0.40,132.43 L 0.37,131.64 L 0.36,131.20 L 0.33,130.00 L 0.31,129.35 L 0.29,127.75 L 0.27,126.91 L 0.25,124.94 L 0.23,123.92 L 0.21,121.60 L 0.19,120.40 L 0.17,117.77 L 0.16,116.41 L 0.14,113.47 L 0.13,111.96 L 0.11,108.74 L 0.10,107.09 L 0.08,103.61 L 0.06,100.07 L 0.04,92.32 L 0.03,88.35 L 0.01,79.86 L 0.00,66.50 L 0.00,0.00 M 93.97,66.75 L 93.97,69.44 L 93.96,74.59 L 93.96,77.12 L 93.95,81.95 L 93.94,84.33 L 93.92,88.84 L 93.92,91.05 L 93.89,95.24 L 93.88,97.29 L 93.86,101.14 L 93.84,103.03 L 93.81,106.55 L 93.79,108.27 L 93.76,111.45 L 93.74,113.00 L 93.70,115.85 L 93.68,117.23 L 93.63,119.72 L 93.61,120.93 L 93.56,123.08 L 93.53,124.10 L 93.48,125.90 L 93.45,126.75 L 93.39,128.19 L 93.36,128.86 L 93.30,129.93 L 93.27,130.42 L 93.20,131.13 L 93.17,131.44 L 93.09,131.78 L 92.98,131.86 L 92.91,131.75 L 92.63,131.12 L 92.47,130.75 L 92.01,129.65 L 91.76,129.05 L 91.15,127.54 L 90.82,126.74 L 90.08,124.87 L 89.69,123.89 L 88.84,121.72 L 88.40,120.61 L 87.46,118.20 L 84.44,110.36 L 83.40,107.63 L 81.34,102.21 L 80.32,99.56 L 78.47,94.72 L 78.04,93.57 L 77.24,91.47 L 76.85,90.46 L 76.18,88.70 L 75.86,87.87 L 75.34,86.51 L 74.77,85.00 L 74.44,84.15 L 73.87,82.85 L 73.59,82.27 L 73.13,81.50 L 72.92,81.18 L 72.59,80.89 L 72.44,80.81 L 72.26,80.98 L 72.19,81.13 L 72.18,81.22 L 72.00,79.54 L 71.61,78.65 L 72.23,79.50 L 71.68,77.50 L 71.64,77.36 L 71.42,76.71 L 71.29,76.33 L 70.90,75.24 L 70.69,74.64 L 70.15,73.15 L 69.86,72.37 L 69.19,70.55 L 68.85,69.60 L 68.07,67.51 L 67.67,66.43 L 66.81,64.12 L 64.00,56.64 L 63.56,55.48 L 62.76,53.36 L 62.37,52.33 L 61.67,50.48 L 61.00,48.69 L 59.95,45.81 L 59.47,44.48 L 58.76,42.41 L 58.45,41.46 L 58.06,40.04 L 57.90,39.40 L 57.78,38.48 L 57.75,38.07 L 57.87,37.50 L 58.92,36.34 L 59.91,35.65 L 61.71,33.57 L 62.56,32.45 L 63.95,29.75 L 64.59,28.36 L 65.45,25.34 L 66.00,20.78 L 66.00,18.92 L 65.60,15.73 L 65.32,14.20 L 64.28,11.49 L 63.67,10.18 L 61.90,7.73 L 58.28,4.11 L 53.50,0.01 L 94.00,0.00 M 24.56,110.61 L 24.77,110.71 L 25.25,111.14 L 26.07,112.10 L 26.38,112.50 L 26.92,113.09 L 27.17,113.36 L 27.61,113.68 L 27.81,113.81 L 28.13,113.89 L 28.27,113.90 L 28.46,113.74 L 28.62,113.53 L 28.49,112.47 L 27.71,110.51 L 29.09,112.75 L 29.53,113.21 L 29.71,113.32 L 30.06,113.47 L 30.17,113.39 L 30.37,113.42 L 30.22,113.48 L 29.38,114.10 L 28.95,114.46 L 28.01,115.68 L 26.95,117.64 L 26.75,118.14 L 26.40,118.81 L 26.22,119.08 L 25.75,119.32 L 25.48,119.40 L 24.72,119.27 L 23.05,118.71 L 22.21,118.40 L 20.90,117.44 L 20.62,117.19 L 20.24,116.69 L 20.00,115.98 L 20.00,115.55 L 19.65,114.51 L 18.80,113.20 L 18.57,112.97 L 18.34,112.62 L 18.27,112.46 L 18.40,112.25 L 18.51,112.16 L 19.02,112.06 L 20.24,112.00 L 20.97,112.00 L 22.31,111.67 L 23.58,110.86 L 23.70,110.68 L 24.00,110.52 L 24.17,110.48 M 31.64,115.27 L 31.57,115.48 L 31.64,115.25 M 31.61,114.41 L 31.63,115.11 L 31.59,114.37 L 31.58,114.35 M 31.44,113.99 L 31.55,114.26 L 31.46,114.03 L 31.42,113.97 M 11.03,110.88 L 10.42,112.06 L 11.03,110.88 M 25.73,107.61 L 25.92,107.80 L 25.70,107.59 M 22.33,107.53 L 22.36,107.52 L 22.56,107.47 M 12.76,107.16 L 12.69,107.32 L 12.77,107.14 M 24.57,107.18 L 24.69,107.23 L 24.52,107.18 M 24.30,107.14 L 23.90,107.09 L 23.94,107.08 M 69.32,92.14 L 69.76,92.64 L 70.29,94.00 L 70.43,94.55 L 71.15,95.41 L 72.47,96.00 L 72.84,96.00 L 73.27,95.90 L 73.44,95.82 L 73.47,95.48 L 73.44,95.27 L 73.06,94.57 L 72.00,93.00 L 71.74,92.63 L 72.12,93.09 L 74.46,95.91 L 73.78,97.21 L 72.00,98.50 L 71.43,98.68 L 70.57,99.54 L 70.00,101.19 L 70.00,101.61 L 69.94,102.17 L 69.90,102.41 L 69.72,102.62 L 69.61,102.68 L 69.28,102.56 L 68.55,102.04 L 68.13,101.69 L 66.89,101.38 L 64.91,101.53 L 64.42,101.68 L 63.76,101.82 L 63.48,101.85 L 63.19,101.67 L 63.09,101.53 L 63.11,100.95 L 63.41,99.51 L 63.62,98.68 L 63.56,97.11 L 62.79,95.23 L 62.51,94.89 L 62.19,94.43 L 62.08,94.23 L 62.11,94.03 L 62.18,93.96 L 62.60,93.98 L 63.71,94.22 L 64.36,94.39 L 65.63,94.24 L 67.09,93.40 L 67.49,92.91 L 68.18,92.35 L 68.50,92.13 L 69.06,92.09 M 60.15,94.94 L 60.15,94.93 L 60.20,94.77 M 60.45,94.07 L 60.45,94.06 L 60.51,94.00 M 69.97,90.50 L 69.23,90.21 L 68.76,90.14 L 67.42,90.50 L 67.03,90.64 L 66.06,91.02 L 64.26,91.75 L 63.60,92.02 L 63.61,92.02 L 64.65,91.59 L 69.29,89.68 M 72.16,81.73 L 72.18,82.09 L 72.33,83.09 L 72.43,83.64 L 72.73,84.82 L 72.40,83.75 L 72.21,82.74 L 72.18,82.32 L 72.14,81.56 L 72.18,81.39 M 66.95,69.67 L 67.60,71.27 L 69.05,74.37 L 69.40,75.08 L 70.03,76.26 L 70.57,77.16 L 70.24,76.69 L 69.60,75.54 L 69.24,74.84 L 67.74,71.70 L 67.08,70.01 L 66.39,68.40 M 29.00,63.00 L 28.78,64.06 L 28.42,65.14 L 28.16,65.82 L 26.94,68.86 L 26.54,69.70 L 27.04,68.56 L 28.19,65.64 L 28.44,64.98 L 28.78,63.92 L 29.00,62.88 M 65.92,67.34 L 65.93,67.38 L 65.86,67.22 M 65.25,66.02 L 65.25,66.02 L 65.24,66.02 M 63.28,63.35 L 63.29,63.35 L 63.24,63.31 M 62.96,63.10 L 62.96,63.10 L 62.94,63.09 M 60.01,62.79 L 59.60,63.04 L 59.99,62.80 L 60.33,62.62 L 60.34,62.62 M 29.26,61.81 L 29.16,62.16 L 29.00,62.79 L 29.00,62.69 L 29.16,62.08 L 29.26,61.75 L 29.59,60.94 L 31.00,58.23 L 29.59,60.98 M 62.31,62.67 L 62.32,62.68 L 62.11,62.61 M 61.98,62.57 L 62.02,62.58 L 61.80,62.53 M 61.34,62.43 L 61.03,62.47 L 60.68,62.54 L 60.99,62.47 L 61.33,62.43 M 21.94,107.68 L 22.29,107.55 L 19.33,109.10 L 20.97,108.16 M 59.30,63.22 L 58.95,63.54 L 59.30,63.22 Z" fill="rgb(246,245,246)"/>
<path d="M 38.00,149.07 L 37.79,148.95 L 36.77,148.61 L 36.17,148.43 L 34.52,148.00 L 33.63,147.79 L 31.57,147.33 L 28.25,146.66 L 27.11,146.44 L 24.87,145.93 L 23.77,145.67 L 21.77,145.11 L 20.82,144.83 L 19.29,144.28 L 17.77,143.55 L 17.16,143.13 L 15.76,142.46 L 14.03,142.01 L 13.82,142.01 L 13.06,141.83 L 12.63,141.72 L 11.55,141.35 L 7.74,139.77 L 6.53,139.20 L 4.69,138.01 L 3.86,137.41 L 2.81,136.19 L 2.38,135.59 L 2.15,134.40 L 2.78,132.70 L 2.91,132.54 L 3.19,131.97 L 3.34,131.66 L 3.63,130.87 L 4.35,128.17 L 4.52,127.25 L 5.39,125.07 L 6.99,122.28 L 7.54,121.58 L 8.41,119.76 L 9.00,117.27 L 9.00,116.59 L 9.40,114.75 L 10.37,112.15 L 11.03,110.88 L 12.21,108.38 L 12.76,107.16 L 13.67,104.92 L 14.09,103.85 L 14.65,102.08 L 15.00,100.22 L 15.00,99.92 L 15.17,99.00 L 15.28,98.49 L 15.63,97.25 L 16.02,95.95 L 17.14,92.90 L 17.73,91.39 L 18.95,88.66 L 19.25,88.04 L 19.80,87.04 L 20.50,86.00 L 20.68,85.79 L 21.07,85.10 L 21.27,84.72 L 21.66,83.77 L 22.57,80.51 L 22.67,79.96 L 23.08,78.48 L 23.32,77.70 L 23.93,75.92 L 26.16,70.51 L 26.94,68.86 L 28.16,65.82 L 28.42,65.14 L 28.78,64.06 L 29.00,63.00 L 29.00,62.79 L 29.16,62.16 L 29.26,61.81 L 29.59,60.98 L 31.00,58.23 L 31.55,57.33 L 32.41,55.23 L 32.59,54.72 L 32.84,53.78 L 33.00,52.61 L 33.00,51.97 L 33.54,50.26 L 34.85,47.88 L 35.36,47.23 L 36.29,45.78 L 37.16,44.06 L 37.25,43.78 L 37.84,43.36 L 38.21,43.17 L 39.51,42.90 L 40.26,42.78 L 42.45,42.62 L 43.06,42.59 L 44.49,42.54 L 46.95,42.49 L 56.26,42.37 L 58.11,46.44 L 58.45,47.17 L 58.98,48.48 L 59.22,49.11 L 59.56,50.22 L 59.85,51.29 L 59.85,52.97 L 59.74,53.76 L 58.93,55.07 L 56.75,56.90 L 53.50,59.00 L 50.50,55.50 L 50.05,54.98 L 49.30,54.12 L 48.94,53.73 L 48.36,53.12 L 48.09,52.85 L 47.65,52.49 L 47.44,52.34 L 47.12,52.21 L 46.83,52.15 L 46.51,52.71 L 46.22,54.55 L 46.14,55.58 L 45.70,57.31 L 45.43,58.12 L 44.63,59.41 L 44.18,60.01 L 43.02,60.87 L 40.86,61.68 L 39.83,61.88 L 38.43,62.54 L 37.85,62.91 L 37.36,63.86 L 37.24,64.37 L 37.67,65.58 L 39.37,67.64 L 39.92,68.15 L 40.67,68.97 L 40.99,69.35 L 41.32,70.02 L 41.43,70.34 L 41.38,71.00 L 40.93,72.13 L 40.63,72.69 L 40.33,73.98 L 40.39,75.58 L 40.48,75.80 L 40.85,76.17 L 41.07,76.34 L 41.65,76.60 L 42.26,76.83 L 43.84,76.96 L 44.64,76.97 L 46.18,76.64 L 47.88,75.65 L 48.07,75.41 L 48.67,75.07 L 49.00,74.92 L 49.90,74.73 L 50.39,74.66 L 51.62,74.63 L 53.85,74.76 L 54.57,74.83 L 55.80,74.87 L 56.37,74.88 L 57.32,74.78 L 57.76,74.71 L 58.43,74.45 L 58.74,74.31 L 59.16,73.88 L 59.34,73.64 L 59.51,73.03 L 59.57,72.70 L 59.51,71.89 L 59.45,71.46 L 59.16,70.44 L 58.50,68.65 L 58.17,67.87 L 57.78,66.76 L 57.63,66.25 L 57.60,65.51 L 57.63,65.16 L 57.98,64.56 L 58.95,63.54 L 59.31,63.22 L 60.01,62.79 L 60.35,62.61 L 61.03,62.47 L 61.37,62.43 L 62.04,62.58 L 62.37,62.70 L 63.03,63.15 L 63.37,63.41 L 64.03,64.17 L 64.36,64.58 L 65.03,65.65 L 65.36,66.22 L 66.04,67.59 L 67.08,70.01 L 67.74,71.70 L 69.24,74.84 L 69.60,75.54 L 70.24,76.69 L 71.03,77.82 L 71.45,78.28 L 72.00,79.54 L 72.19,81.31 L 72.14,81.56 L 72.18,82.32 L 72.21,82.74 L 72.40,83.75 L 73.42,87.08 L 73.85,88.17 L 74.53,90.68 L 74.67,91.29 L 74.86,92.40 L 74.97,93.77 L 74.95,96.50 L 72.12,93.09 L 69.29,89.68 L 64.65,91.59 L 63.61,92.02 L 62.17,92.71 L 61.54,93.04 L 60.77,93.71 L 60.45,94.06 L 60.15,94.93 L 60.00,96.69 L 60.00,97.57 L 60.30,99.13 L 60.39,99.48 L 60.62,100.01 L 61.02,100.51 L 61.30,100.68 L 61.59,101.19 L 61.54,101.93 L 61.46,102.06 L 61.66,102.40 L 61.81,102.57 L 62.38,102.98 L 63.02,103.39 L 64.93,104.22 L 65.92,104.61 L 67.83,105.12 L 68.26,105.21 L 68.98,105.27 L 69.69,105.13 L 69.82,105.04 L 70.23,104.58 L 70.46,104.32 L 71.02,103.57 L 72.92,100.70 L 73.47,99.79 L 74.25,98.61 L 74.61,98.11 L 75.17,97.68 L 75.44,97.54 L 76.01,97.73 L 77.11,98.60 L 77.63,99.07 L 78.45,100.21 L 79.00,101.67 L 79.00,102.04 L 79.28,103.14 L 79.97,104.76 L 80.18,105.14 L 80.79,106.45 L 81.13,107.17 L 81.92,109.03 L 82.34,110.01 L 83.25,112.26 L 83.72,113.41 L 84.69,115.86 L 85.65,118.33 L 87.43,123.14 L 87.84,124.27 L 88.54,126.29 L 89.34,128.76 L 89.64,129.77 L 90.03,131.34 L 90.19,132.05 L 90.32,133.11 L 90.34,133.59 L 90.20,134.26 L 89.70,134.98 L 89.53,135.11 L 89.02,135.54 L 88.73,135.78 L 88.04,136.37 L 85.74,138.34 L 85.36,138.67 L 84.30,139.37 L 83.73,139.72 L 82.40,140.40 L 78.24,141.97 L 76.94,142.30 L 74.31,143.07 L 73.69,143.25 L 72.65,143.59 L 71.50,144.01 L 70.28,144.52 L 67.95,145.33 L 66.81,145.70 L 64.63,146.26 L 63.56,146.51 L 61.50,146.82 L 58.54,147.00 L 57.40,147.00 L 55.03,147.43 L 54.48,147.56 L 53.52,147.90 L 52.44,148.47 L 52.17,148.67 L 51.31,149.02 L 50.83,149.18 L 49.63,149.45 L 48.37,149.69 L 45.34,149.91 L 43.83,149.97 L 41.00,149.81 L 40.34,149.74 L 39.24,149.52 L 38.73,149.40 M 32.17,139.35 L 32.70,138.87 L 33.40,137.82 L 33.69,137.29 L 33.92,136.21 L 33.98,135.67 L 33.73,134.62 L 32.80,133.20 L 32.44,132.84 L 31.08,132.35 L 30.35,132.16 L 28.77,132.02 L 28.02,131.99 L 26.91,132.22 L 26.69,132.30 L 26.46,132.54 L 26.50,133.00 L 26.67,133.28 L 26.65,133.71 L 26.13,134.00 L 25.72,134.00 L 25.16,134.56 L 24.93,134.91 L 24.77,135.93 L 24.74,136.47 L 24.98,137.65 L 25.83,139.25 L 26.29,139.80 L 27.27,140.49 L 27.77,140.77 L 28.81,140.92 L 29.34,140.93 L 30.45,140.54 L 31.01,140.28 M 75.10,136.93 L 75.95,136.32 L 77.06,135.24 L 77.51,134.69 L 77.83,133.51 L 77.90,132.87 L 77.47,131.26 L 77.32,130.82 L 76.88,129.80 L 76.01,128.03 L 75.69,127.40 L 75.15,126.37 L 74.88,125.89 L 74.41,125.13 L 73.94,124.43 L 73.02,123.76 L 72.52,123.53 L 71.23,123.64 L 70.87,123.70 L 70.00,123.95 L 68.43,124.47 L 67.48,124.80 L 66.21,125.33 L 65.66,125.60 L 65.04,126.27 L 64.78,126.65 L 64.58,127.80 L 64.50,130.42 L 64.50,131.05 L 64.42,132.20 L 64.37,132.75 L 64.21,133.66 L 64.12,134.07 L 63.89,134.64 L 63.50,135.01 L 63.28,135.01 L 63.21,135.17 L 63.23,135.28 L 63.55,135.61 L 63.96,135.97 L 65.54,136.94 L 66.39,137.43 L 68.22,138.28 L 68.65,138.47 L 69.43,138.74 L 70.35,138.93 L 70.60,138.94 L 71.29,138.79 L 71.66,138.70 L 72.50,138.37 L 73.36,138.01 M 50.48,126.02 L 51.01,125.47 L 51.98,124.63 L 52.45,124.26 L 53.38,123.75 L 53.84,123.54 L 54.81,123.32 L 56.38,123.27 L 57.33,123.34 L 58.68,122.96 L 59.26,122.69 L 59.80,121.80 L 59.96,121.31 L 59.63,120.12 L 58.06,118.22 L 57.59,117.84 L 56.98,117.21 L 56.73,116.90 L 56.51,116.27 L 56.45,115.93 L 56.58,115.10 L 57.14,113.40 L 57.59,112.22 L 57.95,110.42 L 58.03,109.60 L 57.67,108.53 L 57.39,108.08 L 56.31,107.73 L 53.86,108.04 L 53.19,108.23 L 52.15,108.43 L 51.66,108.50 L 50.88,108.42 L 50.51,108.34 L 49.84,107.95 L 48.77,106.98 L 48.31,106.48 L 47.37,105.77 L 46.90,105.46 L 45.98,105.10 L 45.53,104.96 L 44.67,104.95 L 44.26,104.99 L 43.49,105.30 L 43.12,105.49 L 42.48,106.11 L 42.17,106.46 L 41.69,107.37 L 41.47,107.85 L 41.18,109.03 L 41.00,111.08 L 41.00,111.80 L 40.88,112.94 L 40.79,113.48 L 40.46,114.35 L 40.27,114.76 L 39.67,115.47 L 38.43,116.45 L 37.92,116.79 L 37.21,117.35 L 36.91,117.61 L 36.61,118.08 L 36.51,118.32 L 36.58,118.78 L 37.06,119.57 L 37.38,119.96 L 38.73,120.58 L 41.10,121.00 L 41.64,121.00 L 42.53,121.15 L 42.96,121.25 L 43.67,121.65 L 44.01,121.89 L 44.63,122.59 L 45.52,124.03 L 45.95,124.86 L 46.45,126.45 L 46.53,126.82 L 46.59,127.41 L 46.48,128.03 L 46.32,128.29 L 46.17,128.67 L 46.12,128.83 L 46.18,129.00 L 46.28,129.13 L 46.98,128.87 L 47.39,128.66 L 48.54,127.82 L 49.14,127.33 M 29.18,118.98 L 29.64,118.52 L 30.38,117.62 L 30.73,117.18 L 31.22,116.36 L 31.43,115.96 L 31.64,115.27 L 31.61,114.41 L 31.44,113.99 L 30.94,113.48 L 30.17,113.39 L 30.06,113.47 L 29.71,113.32 L 29.53,113.21 L 29.09,112.75 L 27.68,110.46 L 27.20,109.46 L 26.24,108.15 L 25.73,107.61 L 24.57,107.18 L 23.94,107.08 L 22.36,107.52 L 21.94,107.68 L 20.97,108.16 L 19.33,109.10 L 18.65,109.53 L 17.67,110.24 L 17.25,110.58 L 16.74,111.21 L 16.54,111.53 L 16.43,112.20 L 16.64,113.35 L 16.84,113.94 L 17.17,115.57 L 17.43,117.90 L 17.45,118.49 L 17.80,119.49 L 18.02,119.96 L 18.71,120.69 L 19.10,121.02 L 20.06,121.48 L 20.57,121.67 L 21.72,121.85 L 22.32,121.91 L 23.59,121.80 L 24.23,121.71 L 25.53,121.31 L 26.17,121.08 L 27.43,120.38 L 28.04,119.99 M 76.49,117.37 L 76.94,116.69 L 77.46,115.10 L 77.53,113.11 L 77.39,112.65 L 76.55,111.70 L 76.07,111.23 L 74.77,110.37 L 74.09,109.97 L 72.62,109.39 L 70.56,109.00 L 70.18,109.00 L 69.48,109.45 L 69.16,109.72 L 68.67,110.53 L 68.46,110.95 L 68.30,111.87 L 68.56,113.09 L 68.71,113.34 L 68.63,113.73 L 68.02,114.00 L 67.70,114.00 L 67.53,114.50 L 67.52,114.82 L 67.89,115.79 L 68.13,116.31 L 68.93,117.52 L 70.52,119.38 L 70.99,119.85 L 71.95,120.32 L 72.44,120.47 L 73.42,120.30 L 73.92,120.13 L 74.93,119.32 L 75.44,118.83 M 33.31,95.81 L 33.68,95.82 L 34.20,95.70 L 34.43,95.60 L 34.71,95.16 L 34.82,94.89 L 34.89,94.04 L 34.81,92.19 L 34.74,91.40 L 34.55,90.26 L 34.44,89.76 L 34.08,89.10 L 33.86,88.81 L 33.21,88.48 L 31.80,88.19 L 30.98,88.09 L 29.35,88.27 L 28.56,88.41 L 27.17,88.97 L 26.52,89.29 L 25.60,90.12 L 25.00,91.54 L 25.00,91.94 L 25.27,92.57 L 25.93,93.00 L 26.19,93.00 L 26.78,93.61 L 27.52,95.07 L 27.64,95.44 L 27.92,95.97 L 28.06,96.21 L 28.42,96.49 L 29.84,96.44 L 30.30,96.24 L 31.54,95.96 L 32.17,95.85 M 53.46,90.66 L 54.09,90.19 L 54.69,88.95 L 54.88,88.29 L 54.65,86.83 L 54.44,86.10 L 53.45,84.66 L 51.18,82.76 L 50.49,82.35 L 49.52,81.85 L 49.09,81.64 L 48.45,81.55 L 48.15,81.56 L 47.61,81.88 L 46.63,82.85 L 46.11,83.43 L 45.46,84.64 L 45.20,85.26 L 45.07,86.51 L 45.08,87.13 L 45.47,88.37 L 46.65,90.17 L 47.15,90.71 L 48.19,91.42 L 48.72,91.71 L 49.84,91.92 L 50.41,91.96 L 51.60,91.66 L 52.21,91.45 Z" fill="rgb(249,107,156)"/>
</g>
</svg>